G04 #@! TF.GenerationSoftware,KiCad,Pcbnew,5.1.4-e60b266~84~ubuntu16.04.1*
G04 #@! TF.CreationDate,2019-11-10T18:33:16+00:00*
G04 #@! TF.ProjectId,OpenPSX2AmigaPadAdapter,4f70656e-5053-4583-9241-6d6967615061,2*
G04 #@! TF.SameCoordinates,Original*
G04 #@! TF.FileFunction,Soldermask,Bot*
G04 #@! TF.FilePolarity,Negative*
%FSLAX46Y46*%
G04 Gerber Fmt 4.6, Leading zero omitted, Abs format (unit mm)*
G04 Created by KiCad (PCBNEW 5.1.4-e60b266~84~ubuntu16.04.1) date 2019-11-10 18:33:16*
%MOMM*%
%LPD*%
G04 APERTURE LIST*
%ADD10C,0.050000*%
%ADD11O,1.700000X1.700000*%
%ADD12R,1.700000X1.700000*%
%ADD13C,0.100000*%
%ADD14C,1.150000*%
%ADD15R,0.900000X0.800000*%
%ADD16C,1.500000*%
%ADD17C,5.001260*%
%ADD18O,1.998980X1.501140*%
G04 APERTURE END LIST*
D10*
X113792000Y-95758000D02*
X110871000Y-95758000D01*
X113792000Y-56134000D02*
X113792000Y-95758000D01*
X110871000Y-56134000D02*
X113792000Y-56134000D01*
X110871000Y-95758000D02*
X110871000Y-56134000D01*
X167640000Y-91694000D02*
X127762000Y-91694000D01*
X127762000Y-91694000D02*
X115189000Y-98044000D01*
X108712000Y-98044000D02*
X115189000Y-98044000D01*
X108712000Y-53848000D02*
X108712000Y-98044000D01*
X114681000Y-53848000D02*
X108712000Y-53848000D01*
X127762000Y-60706000D02*
X114681000Y-53848000D01*
X127762000Y-60706000D02*
X167640000Y-60706000D01*
X167640000Y-60706000D02*
X167640000Y-91694000D01*
D11*
X116616000Y-59982500D03*
X116616000Y-63982500D03*
X116616000Y-67982500D03*
X116616000Y-71982500D03*
X116616000Y-75982500D03*
X116616000Y-79982500D03*
X116616000Y-83982500D03*
X116616000Y-87982500D03*
D12*
X116616000Y-91982500D03*
D13*
G36*
X144111505Y-82884204D02*
G01*
X144135773Y-82887804D01*
X144159572Y-82893765D01*
X144182671Y-82902030D01*
X144204850Y-82912520D01*
X144225893Y-82925132D01*
X144245599Y-82939747D01*
X144263777Y-82956223D01*
X144280253Y-82974401D01*
X144294868Y-82994107D01*
X144307480Y-83015150D01*
X144317970Y-83037329D01*
X144326235Y-83060428D01*
X144332196Y-83084227D01*
X144335796Y-83108495D01*
X144337000Y-83132999D01*
X144337000Y-83783001D01*
X144335796Y-83807505D01*
X144332196Y-83831773D01*
X144326235Y-83855572D01*
X144317970Y-83878671D01*
X144307480Y-83900850D01*
X144294868Y-83921893D01*
X144280253Y-83941599D01*
X144263777Y-83959777D01*
X144245599Y-83976253D01*
X144225893Y-83990868D01*
X144204850Y-84003480D01*
X144182671Y-84013970D01*
X144159572Y-84022235D01*
X144135773Y-84028196D01*
X144111505Y-84031796D01*
X144087001Y-84033000D01*
X143186999Y-84033000D01*
X143162495Y-84031796D01*
X143138227Y-84028196D01*
X143114428Y-84022235D01*
X143091329Y-84013970D01*
X143069150Y-84003480D01*
X143048107Y-83990868D01*
X143028401Y-83976253D01*
X143010223Y-83959777D01*
X142993747Y-83941599D01*
X142979132Y-83921893D01*
X142966520Y-83900850D01*
X142956030Y-83878671D01*
X142947765Y-83855572D01*
X142941804Y-83831773D01*
X142938204Y-83807505D01*
X142937000Y-83783001D01*
X142937000Y-83132999D01*
X142938204Y-83108495D01*
X142941804Y-83084227D01*
X142947765Y-83060428D01*
X142956030Y-83037329D01*
X142966520Y-83015150D01*
X142979132Y-82994107D01*
X142993747Y-82974401D01*
X143010223Y-82956223D01*
X143028401Y-82939747D01*
X143048107Y-82925132D01*
X143069150Y-82912520D01*
X143091329Y-82902030D01*
X143114428Y-82893765D01*
X143138227Y-82887804D01*
X143162495Y-82884204D01*
X143186999Y-82883000D01*
X144087001Y-82883000D01*
X144111505Y-82884204D01*
X144111505Y-82884204D01*
G37*
D14*
X143637000Y-83458000D03*
D13*
G36*
X144111505Y-84934204D02*
G01*
X144135773Y-84937804D01*
X144159572Y-84943765D01*
X144182671Y-84952030D01*
X144204850Y-84962520D01*
X144225893Y-84975132D01*
X144245599Y-84989747D01*
X144263777Y-85006223D01*
X144280253Y-85024401D01*
X144294868Y-85044107D01*
X144307480Y-85065150D01*
X144317970Y-85087329D01*
X144326235Y-85110428D01*
X144332196Y-85134227D01*
X144335796Y-85158495D01*
X144337000Y-85182999D01*
X144337000Y-85833001D01*
X144335796Y-85857505D01*
X144332196Y-85881773D01*
X144326235Y-85905572D01*
X144317970Y-85928671D01*
X144307480Y-85950850D01*
X144294868Y-85971893D01*
X144280253Y-85991599D01*
X144263777Y-86009777D01*
X144245599Y-86026253D01*
X144225893Y-86040868D01*
X144204850Y-86053480D01*
X144182671Y-86063970D01*
X144159572Y-86072235D01*
X144135773Y-86078196D01*
X144111505Y-86081796D01*
X144087001Y-86083000D01*
X143186999Y-86083000D01*
X143162495Y-86081796D01*
X143138227Y-86078196D01*
X143114428Y-86072235D01*
X143091329Y-86063970D01*
X143069150Y-86053480D01*
X143048107Y-86040868D01*
X143028401Y-86026253D01*
X143010223Y-86009777D01*
X142993747Y-85991599D01*
X142979132Y-85971893D01*
X142966520Y-85950850D01*
X142956030Y-85928671D01*
X142947765Y-85905572D01*
X142941804Y-85881773D01*
X142938204Y-85857505D01*
X142937000Y-85833001D01*
X142937000Y-85182999D01*
X142938204Y-85158495D01*
X142941804Y-85134227D01*
X142947765Y-85110428D01*
X142956030Y-85087329D01*
X142966520Y-85065150D01*
X142979132Y-85044107D01*
X142993747Y-85024401D01*
X143010223Y-85006223D01*
X143028401Y-84989747D01*
X143048107Y-84975132D01*
X143069150Y-84962520D01*
X143091329Y-84952030D01*
X143114428Y-84943765D01*
X143138227Y-84937804D01*
X143162495Y-84934204D01*
X143186999Y-84933000D01*
X144087001Y-84933000D01*
X144111505Y-84934204D01*
X144111505Y-84934204D01*
G37*
D14*
X143637000Y-85508000D03*
D13*
G36*
X149191505Y-84934204D02*
G01*
X149215773Y-84937804D01*
X149239572Y-84943765D01*
X149262671Y-84952030D01*
X149284850Y-84962520D01*
X149305893Y-84975132D01*
X149325599Y-84989747D01*
X149343777Y-85006223D01*
X149360253Y-85024401D01*
X149374868Y-85044107D01*
X149387480Y-85065150D01*
X149397970Y-85087329D01*
X149406235Y-85110428D01*
X149412196Y-85134227D01*
X149415796Y-85158495D01*
X149417000Y-85182999D01*
X149417000Y-85833001D01*
X149415796Y-85857505D01*
X149412196Y-85881773D01*
X149406235Y-85905572D01*
X149397970Y-85928671D01*
X149387480Y-85950850D01*
X149374868Y-85971893D01*
X149360253Y-85991599D01*
X149343777Y-86009777D01*
X149325599Y-86026253D01*
X149305893Y-86040868D01*
X149284850Y-86053480D01*
X149262671Y-86063970D01*
X149239572Y-86072235D01*
X149215773Y-86078196D01*
X149191505Y-86081796D01*
X149167001Y-86083000D01*
X148266999Y-86083000D01*
X148242495Y-86081796D01*
X148218227Y-86078196D01*
X148194428Y-86072235D01*
X148171329Y-86063970D01*
X148149150Y-86053480D01*
X148128107Y-86040868D01*
X148108401Y-86026253D01*
X148090223Y-86009777D01*
X148073747Y-85991599D01*
X148059132Y-85971893D01*
X148046520Y-85950850D01*
X148036030Y-85928671D01*
X148027765Y-85905572D01*
X148021804Y-85881773D01*
X148018204Y-85857505D01*
X148017000Y-85833001D01*
X148017000Y-85182999D01*
X148018204Y-85158495D01*
X148021804Y-85134227D01*
X148027765Y-85110428D01*
X148036030Y-85087329D01*
X148046520Y-85065150D01*
X148059132Y-85044107D01*
X148073747Y-85024401D01*
X148090223Y-85006223D01*
X148108401Y-84989747D01*
X148128107Y-84975132D01*
X148149150Y-84962520D01*
X148171329Y-84952030D01*
X148194428Y-84943765D01*
X148218227Y-84937804D01*
X148242495Y-84934204D01*
X148266999Y-84933000D01*
X149167001Y-84933000D01*
X149191505Y-84934204D01*
X149191505Y-84934204D01*
G37*
D14*
X148717000Y-85508000D03*
D13*
G36*
X149191505Y-82884204D02*
G01*
X149215773Y-82887804D01*
X149239572Y-82893765D01*
X149262671Y-82902030D01*
X149284850Y-82912520D01*
X149305893Y-82925132D01*
X149325599Y-82939747D01*
X149343777Y-82956223D01*
X149360253Y-82974401D01*
X149374868Y-82994107D01*
X149387480Y-83015150D01*
X149397970Y-83037329D01*
X149406235Y-83060428D01*
X149412196Y-83084227D01*
X149415796Y-83108495D01*
X149417000Y-83132999D01*
X149417000Y-83783001D01*
X149415796Y-83807505D01*
X149412196Y-83831773D01*
X149406235Y-83855572D01*
X149397970Y-83878671D01*
X149387480Y-83900850D01*
X149374868Y-83921893D01*
X149360253Y-83941599D01*
X149343777Y-83959777D01*
X149325599Y-83976253D01*
X149305893Y-83990868D01*
X149284850Y-84003480D01*
X149262671Y-84013970D01*
X149239572Y-84022235D01*
X149215773Y-84028196D01*
X149191505Y-84031796D01*
X149167001Y-84033000D01*
X148266999Y-84033000D01*
X148242495Y-84031796D01*
X148218227Y-84028196D01*
X148194428Y-84022235D01*
X148171329Y-84013970D01*
X148149150Y-84003480D01*
X148128107Y-83990868D01*
X148108401Y-83976253D01*
X148090223Y-83959777D01*
X148073747Y-83941599D01*
X148059132Y-83921893D01*
X148046520Y-83900850D01*
X148036030Y-83878671D01*
X148027765Y-83855572D01*
X148021804Y-83831773D01*
X148018204Y-83807505D01*
X148017000Y-83783001D01*
X148017000Y-83132999D01*
X148018204Y-83108495D01*
X148021804Y-83084227D01*
X148027765Y-83060428D01*
X148036030Y-83037329D01*
X148046520Y-83015150D01*
X148059132Y-82994107D01*
X148073747Y-82974401D01*
X148090223Y-82956223D01*
X148108401Y-82939747D01*
X148128107Y-82925132D01*
X148149150Y-82912520D01*
X148171329Y-82902030D01*
X148194428Y-82893765D01*
X148218227Y-82887804D01*
X148242495Y-82884204D01*
X148266999Y-82883000D01*
X149167001Y-82883000D01*
X149191505Y-82884204D01*
X149191505Y-82884204D01*
G37*
D14*
X148717000Y-83458000D03*
D13*
G36*
X148145505Y-71505204D02*
G01*
X148169773Y-71508804D01*
X148193572Y-71514765D01*
X148216671Y-71523030D01*
X148238850Y-71533520D01*
X148259893Y-71546132D01*
X148279599Y-71560747D01*
X148297777Y-71577223D01*
X148314253Y-71595401D01*
X148328868Y-71615107D01*
X148341480Y-71636150D01*
X148351970Y-71658329D01*
X148360235Y-71681428D01*
X148366196Y-71705227D01*
X148369796Y-71729495D01*
X148371000Y-71753999D01*
X148371000Y-72654001D01*
X148369796Y-72678505D01*
X148366196Y-72702773D01*
X148360235Y-72726572D01*
X148351970Y-72749671D01*
X148341480Y-72771850D01*
X148328868Y-72792893D01*
X148314253Y-72812599D01*
X148297777Y-72830777D01*
X148279599Y-72847253D01*
X148259893Y-72861868D01*
X148238850Y-72874480D01*
X148216671Y-72884970D01*
X148193572Y-72893235D01*
X148169773Y-72899196D01*
X148145505Y-72902796D01*
X148121001Y-72904000D01*
X147470999Y-72904000D01*
X147446495Y-72902796D01*
X147422227Y-72899196D01*
X147398428Y-72893235D01*
X147375329Y-72884970D01*
X147353150Y-72874480D01*
X147332107Y-72861868D01*
X147312401Y-72847253D01*
X147294223Y-72830777D01*
X147277747Y-72812599D01*
X147263132Y-72792893D01*
X147250520Y-72771850D01*
X147240030Y-72749671D01*
X147231765Y-72726572D01*
X147225804Y-72702773D01*
X147222204Y-72678505D01*
X147221000Y-72654001D01*
X147221000Y-71753999D01*
X147222204Y-71729495D01*
X147225804Y-71705227D01*
X147231765Y-71681428D01*
X147240030Y-71658329D01*
X147250520Y-71636150D01*
X147263132Y-71615107D01*
X147277747Y-71595401D01*
X147294223Y-71577223D01*
X147312401Y-71560747D01*
X147332107Y-71546132D01*
X147353150Y-71533520D01*
X147375329Y-71523030D01*
X147398428Y-71514765D01*
X147422227Y-71508804D01*
X147446495Y-71505204D01*
X147470999Y-71504000D01*
X148121001Y-71504000D01*
X148145505Y-71505204D01*
X148145505Y-71505204D01*
G37*
D14*
X147796000Y-72204000D03*
D13*
G36*
X146095505Y-71505204D02*
G01*
X146119773Y-71508804D01*
X146143572Y-71514765D01*
X146166671Y-71523030D01*
X146188850Y-71533520D01*
X146209893Y-71546132D01*
X146229599Y-71560747D01*
X146247777Y-71577223D01*
X146264253Y-71595401D01*
X146278868Y-71615107D01*
X146291480Y-71636150D01*
X146301970Y-71658329D01*
X146310235Y-71681428D01*
X146316196Y-71705227D01*
X146319796Y-71729495D01*
X146321000Y-71753999D01*
X146321000Y-72654001D01*
X146319796Y-72678505D01*
X146316196Y-72702773D01*
X146310235Y-72726572D01*
X146301970Y-72749671D01*
X146291480Y-72771850D01*
X146278868Y-72792893D01*
X146264253Y-72812599D01*
X146247777Y-72830777D01*
X146229599Y-72847253D01*
X146209893Y-72861868D01*
X146188850Y-72874480D01*
X146166671Y-72884970D01*
X146143572Y-72893235D01*
X146119773Y-72899196D01*
X146095505Y-72902796D01*
X146071001Y-72904000D01*
X145420999Y-72904000D01*
X145396495Y-72902796D01*
X145372227Y-72899196D01*
X145348428Y-72893235D01*
X145325329Y-72884970D01*
X145303150Y-72874480D01*
X145282107Y-72861868D01*
X145262401Y-72847253D01*
X145244223Y-72830777D01*
X145227747Y-72812599D01*
X145213132Y-72792893D01*
X145200520Y-72771850D01*
X145190030Y-72749671D01*
X145181765Y-72726572D01*
X145175804Y-72702773D01*
X145172204Y-72678505D01*
X145171000Y-72654001D01*
X145171000Y-71753999D01*
X145172204Y-71729495D01*
X145175804Y-71705227D01*
X145181765Y-71681428D01*
X145190030Y-71658329D01*
X145200520Y-71636150D01*
X145213132Y-71615107D01*
X145227747Y-71595401D01*
X145244223Y-71577223D01*
X145262401Y-71560747D01*
X145282107Y-71546132D01*
X145303150Y-71533520D01*
X145325329Y-71523030D01*
X145348428Y-71514765D01*
X145372227Y-71508804D01*
X145396495Y-71505204D01*
X145420999Y-71504000D01*
X146071001Y-71504000D01*
X146095505Y-71505204D01*
X146095505Y-71505204D01*
G37*
D14*
X145746000Y-72204000D03*
D13*
G36*
X122269505Y-84772204D02*
G01*
X122293773Y-84775804D01*
X122317572Y-84781765D01*
X122340671Y-84790030D01*
X122362850Y-84800520D01*
X122383893Y-84813132D01*
X122403599Y-84827747D01*
X122421777Y-84844223D01*
X122438253Y-84862401D01*
X122452868Y-84882107D01*
X122465480Y-84903150D01*
X122475970Y-84925329D01*
X122484235Y-84948428D01*
X122490196Y-84972227D01*
X122493796Y-84996495D01*
X122495000Y-85020999D01*
X122495000Y-85921001D01*
X122493796Y-85945505D01*
X122490196Y-85969773D01*
X122484235Y-85993572D01*
X122475970Y-86016671D01*
X122465480Y-86038850D01*
X122452868Y-86059893D01*
X122438253Y-86079599D01*
X122421777Y-86097777D01*
X122403599Y-86114253D01*
X122383893Y-86128868D01*
X122362850Y-86141480D01*
X122340671Y-86151970D01*
X122317572Y-86160235D01*
X122293773Y-86166196D01*
X122269505Y-86169796D01*
X122245001Y-86171000D01*
X121594999Y-86171000D01*
X121570495Y-86169796D01*
X121546227Y-86166196D01*
X121522428Y-86160235D01*
X121499329Y-86151970D01*
X121477150Y-86141480D01*
X121456107Y-86128868D01*
X121436401Y-86114253D01*
X121418223Y-86097777D01*
X121401747Y-86079599D01*
X121387132Y-86059893D01*
X121374520Y-86038850D01*
X121364030Y-86016671D01*
X121355765Y-85993572D01*
X121349804Y-85969773D01*
X121346204Y-85945505D01*
X121345000Y-85921001D01*
X121345000Y-85020999D01*
X121346204Y-84996495D01*
X121349804Y-84972227D01*
X121355765Y-84948428D01*
X121364030Y-84925329D01*
X121374520Y-84903150D01*
X121387132Y-84882107D01*
X121401747Y-84862401D01*
X121418223Y-84844223D01*
X121436401Y-84827747D01*
X121456107Y-84813132D01*
X121477150Y-84800520D01*
X121499329Y-84790030D01*
X121522428Y-84781765D01*
X121546227Y-84775804D01*
X121570495Y-84772204D01*
X121594999Y-84771000D01*
X122245001Y-84771000D01*
X122269505Y-84772204D01*
X122269505Y-84772204D01*
G37*
D14*
X121920000Y-85471000D03*
D13*
G36*
X124319505Y-84772204D02*
G01*
X124343773Y-84775804D01*
X124367572Y-84781765D01*
X124390671Y-84790030D01*
X124412850Y-84800520D01*
X124433893Y-84813132D01*
X124453599Y-84827747D01*
X124471777Y-84844223D01*
X124488253Y-84862401D01*
X124502868Y-84882107D01*
X124515480Y-84903150D01*
X124525970Y-84925329D01*
X124534235Y-84948428D01*
X124540196Y-84972227D01*
X124543796Y-84996495D01*
X124545000Y-85020999D01*
X124545000Y-85921001D01*
X124543796Y-85945505D01*
X124540196Y-85969773D01*
X124534235Y-85993572D01*
X124525970Y-86016671D01*
X124515480Y-86038850D01*
X124502868Y-86059893D01*
X124488253Y-86079599D01*
X124471777Y-86097777D01*
X124453599Y-86114253D01*
X124433893Y-86128868D01*
X124412850Y-86141480D01*
X124390671Y-86151970D01*
X124367572Y-86160235D01*
X124343773Y-86166196D01*
X124319505Y-86169796D01*
X124295001Y-86171000D01*
X123644999Y-86171000D01*
X123620495Y-86169796D01*
X123596227Y-86166196D01*
X123572428Y-86160235D01*
X123549329Y-86151970D01*
X123527150Y-86141480D01*
X123506107Y-86128868D01*
X123486401Y-86114253D01*
X123468223Y-86097777D01*
X123451747Y-86079599D01*
X123437132Y-86059893D01*
X123424520Y-86038850D01*
X123414030Y-86016671D01*
X123405765Y-85993572D01*
X123399804Y-85969773D01*
X123396204Y-85945505D01*
X123395000Y-85921001D01*
X123395000Y-85020999D01*
X123396204Y-84996495D01*
X123399804Y-84972227D01*
X123405765Y-84948428D01*
X123414030Y-84925329D01*
X123424520Y-84903150D01*
X123437132Y-84882107D01*
X123451747Y-84862401D01*
X123468223Y-84844223D01*
X123486401Y-84827747D01*
X123506107Y-84813132D01*
X123527150Y-84800520D01*
X123549329Y-84790030D01*
X123572428Y-84781765D01*
X123596227Y-84775804D01*
X123620495Y-84772204D01*
X123644999Y-84771000D01*
X124295001Y-84771000D01*
X124319505Y-84772204D01*
X124319505Y-84772204D01*
G37*
D14*
X123970000Y-85471000D03*
D15*
X126571500Y-81087000D03*
X126571500Y-79187000D03*
X128571500Y-80137000D03*
X128571500Y-74957500D03*
X126571500Y-74007500D03*
X126571500Y-75907500D03*
X126571500Y-70757666D03*
X126571500Y-68857666D03*
X128571500Y-69807666D03*
X128571500Y-64643000D03*
X126571500Y-63693000D03*
X126571500Y-65593000D03*
D13*
G36*
X128882505Y-84772204D02*
G01*
X128906773Y-84775804D01*
X128930572Y-84781765D01*
X128953671Y-84790030D01*
X128975850Y-84800520D01*
X128996893Y-84813132D01*
X129016599Y-84827747D01*
X129034777Y-84844223D01*
X129051253Y-84862401D01*
X129065868Y-84882107D01*
X129078480Y-84903150D01*
X129088970Y-84925329D01*
X129097235Y-84948428D01*
X129103196Y-84972227D01*
X129106796Y-84996495D01*
X129108000Y-85020999D01*
X129108000Y-85921001D01*
X129106796Y-85945505D01*
X129103196Y-85969773D01*
X129097235Y-85993572D01*
X129088970Y-86016671D01*
X129078480Y-86038850D01*
X129065868Y-86059893D01*
X129051253Y-86079599D01*
X129034777Y-86097777D01*
X129016599Y-86114253D01*
X128996893Y-86128868D01*
X128975850Y-86141480D01*
X128953671Y-86151970D01*
X128930572Y-86160235D01*
X128906773Y-86166196D01*
X128882505Y-86169796D01*
X128858001Y-86171000D01*
X128207999Y-86171000D01*
X128183495Y-86169796D01*
X128159227Y-86166196D01*
X128135428Y-86160235D01*
X128112329Y-86151970D01*
X128090150Y-86141480D01*
X128069107Y-86128868D01*
X128049401Y-86114253D01*
X128031223Y-86097777D01*
X128014747Y-86079599D01*
X128000132Y-86059893D01*
X127987520Y-86038850D01*
X127977030Y-86016671D01*
X127968765Y-85993572D01*
X127962804Y-85969773D01*
X127959204Y-85945505D01*
X127958000Y-85921001D01*
X127958000Y-85020999D01*
X127959204Y-84996495D01*
X127962804Y-84972227D01*
X127968765Y-84948428D01*
X127977030Y-84925329D01*
X127987520Y-84903150D01*
X128000132Y-84882107D01*
X128014747Y-84862401D01*
X128031223Y-84844223D01*
X128049401Y-84827747D01*
X128069107Y-84813132D01*
X128090150Y-84800520D01*
X128112329Y-84790030D01*
X128135428Y-84781765D01*
X128159227Y-84775804D01*
X128183495Y-84772204D01*
X128207999Y-84771000D01*
X128858001Y-84771000D01*
X128882505Y-84772204D01*
X128882505Y-84772204D01*
G37*
D14*
X128533000Y-85471000D03*
D13*
G36*
X126832505Y-84772204D02*
G01*
X126856773Y-84775804D01*
X126880572Y-84781765D01*
X126903671Y-84790030D01*
X126925850Y-84800520D01*
X126946893Y-84813132D01*
X126966599Y-84827747D01*
X126984777Y-84844223D01*
X127001253Y-84862401D01*
X127015868Y-84882107D01*
X127028480Y-84903150D01*
X127038970Y-84925329D01*
X127047235Y-84948428D01*
X127053196Y-84972227D01*
X127056796Y-84996495D01*
X127058000Y-85020999D01*
X127058000Y-85921001D01*
X127056796Y-85945505D01*
X127053196Y-85969773D01*
X127047235Y-85993572D01*
X127038970Y-86016671D01*
X127028480Y-86038850D01*
X127015868Y-86059893D01*
X127001253Y-86079599D01*
X126984777Y-86097777D01*
X126966599Y-86114253D01*
X126946893Y-86128868D01*
X126925850Y-86141480D01*
X126903671Y-86151970D01*
X126880572Y-86160235D01*
X126856773Y-86166196D01*
X126832505Y-86169796D01*
X126808001Y-86171000D01*
X126157999Y-86171000D01*
X126133495Y-86169796D01*
X126109227Y-86166196D01*
X126085428Y-86160235D01*
X126062329Y-86151970D01*
X126040150Y-86141480D01*
X126019107Y-86128868D01*
X125999401Y-86114253D01*
X125981223Y-86097777D01*
X125964747Y-86079599D01*
X125950132Y-86059893D01*
X125937520Y-86038850D01*
X125927030Y-86016671D01*
X125918765Y-85993572D01*
X125912804Y-85969773D01*
X125909204Y-85945505D01*
X125908000Y-85921001D01*
X125908000Y-85020999D01*
X125909204Y-84996495D01*
X125912804Y-84972227D01*
X125918765Y-84948428D01*
X125927030Y-84925329D01*
X125937520Y-84903150D01*
X125950132Y-84882107D01*
X125964747Y-84862401D01*
X125981223Y-84844223D01*
X125999401Y-84827747D01*
X126019107Y-84813132D01*
X126040150Y-84800520D01*
X126062329Y-84790030D01*
X126085428Y-84781765D01*
X126109227Y-84775804D01*
X126133495Y-84772204D01*
X126157999Y-84771000D01*
X126808001Y-84771000D01*
X126832505Y-84772204D01*
X126832505Y-84772204D01*
G37*
D14*
X126483000Y-85471000D03*
D13*
G36*
X131665505Y-80588204D02*
G01*
X131689773Y-80591804D01*
X131713572Y-80597765D01*
X131736671Y-80606030D01*
X131758850Y-80616520D01*
X131779893Y-80629132D01*
X131799599Y-80643747D01*
X131817777Y-80660223D01*
X131834253Y-80678401D01*
X131848868Y-80698107D01*
X131861480Y-80719150D01*
X131871970Y-80741329D01*
X131880235Y-80764428D01*
X131886196Y-80788227D01*
X131889796Y-80812495D01*
X131891000Y-80836999D01*
X131891000Y-81487001D01*
X131889796Y-81511505D01*
X131886196Y-81535773D01*
X131880235Y-81559572D01*
X131871970Y-81582671D01*
X131861480Y-81604850D01*
X131848868Y-81625893D01*
X131834253Y-81645599D01*
X131817777Y-81663777D01*
X131799599Y-81680253D01*
X131779893Y-81694868D01*
X131758850Y-81707480D01*
X131736671Y-81717970D01*
X131713572Y-81726235D01*
X131689773Y-81732196D01*
X131665505Y-81735796D01*
X131641001Y-81737000D01*
X130740999Y-81737000D01*
X130716495Y-81735796D01*
X130692227Y-81732196D01*
X130668428Y-81726235D01*
X130645329Y-81717970D01*
X130623150Y-81707480D01*
X130602107Y-81694868D01*
X130582401Y-81680253D01*
X130564223Y-81663777D01*
X130547747Y-81645599D01*
X130533132Y-81625893D01*
X130520520Y-81604850D01*
X130510030Y-81582671D01*
X130501765Y-81559572D01*
X130495804Y-81535773D01*
X130492204Y-81511505D01*
X130491000Y-81487001D01*
X130491000Y-80836999D01*
X130492204Y-80812495D01*
X130495804Y-80788227D01*
X130501765Y-80764428D01*
X130510030Y-80741329D01*
X130520520Y-80719150D01*
X130533132Y-80698107D01*
X130547747Y-80678401D01*
X130564223Y-80660223D01*
X130582401Y-80643747D01*
X130602107Y-80629132D01*
X130623150Y-80616520D01*
X130645329Y-80606030D01*
X130668428Y-80597765D01*
X130692227Y-80591804D01*
X130716495Y-80588204D01*
X130740999Y-80587000D01*
X131641001Y-80587000D01*
X131665505Y-80588204D01*
X131665505Y-80588204D01*
G37*
D14*
X131191000Y-81162000D03*
D13*
G36*
X131665505Y-78538204D02*
G01*
X131689773Y-78541804D01*
X131713572Y-78547765D01*
X131736671Y-78556030D01*
X131758850Y-78566520D01*
X131779893Y-78579132D01*
X131799599Y-78593747D01*
X131817777Y-78610223D01*
X131834253Y-78628401D01*
X131848868Y-78648107D01*
X131861480Y-78669150D01*
X131871970Y-78691329D01*
X131880235Y-78714428D01*
X131886196Y-78738227D01*
X131889796Y-78762495D01*
X131891000Y-78786999D01*
X131891000Y-79437001D01*
X131889796Y-79461505D01*
X131886196Y-79485773D01*
X131880235Y-79509572D01*
X131871970Y-79532671D01*
X131861480Y-79554850D01*
X131848868Y-79575893D01*
X131834253Y-79595599D01*
X131817777Y-79613777D01*
X131799599Y-79630253D01*
X131779893Y-79644868D01*
X131758850Y-79657480D01*
X131736671Y-79667970D01*
X131713572Y-79676235D01*
X131689773Y-79682196D01*
X131665505Y-79685796D01*
X131641001Y-79687000D01*
X130740999Y-79687000D01*
X130716495Y-79685796D01*
X130692227Y-79682196D01*
X130668428Y-79676235D01*
X130645329Y-79667970D01*
X130623150Y-79657480D01*
X130602107Y-79644868D01*
X130582401Y-79630253D01*
X130564223Y-79613777D01*
X130547747Y-79595599D01*
X130533132Y-79575893D01*
X130520520Y-79554850D01*
X130510030Y-79532671D01*
X130501765Y-79509572D01*
X130495804Y-79485773D01*
X130492204Y-79461505D01*
X130491000Y-79437001D01*
X130491000Y-78786999D01*
X130492204Y-78762495D01*
X130495804Y-78738227D01*
X130501765Y-78714428D01*
X130510030Y-78691329D01*
X130520520Y-78669150D01*
X130533132Y-78648107D01*
X130547747Y-78628401D01*
X130564223Y-78610223D01*
X130582401Y-78593747D01*
X130602107Y-78579132D01*
X130623150Y-78566520D01*
X130645329Y-78556030D01*
X130668428Y-78547765D01*
X130692227Y-78541804D01*
X130716495Y-78538204D01*
X130740999Y-78537000D01*
X131641001Y-78537000D01*
X131665505Y-78538204D01*
X131665505Y-78538204D01*
G37*
D14*
X131191000Y-79112000D03*
D13*
G36*
X131665505Y-75423536D02*
G01*
X131689773Y-75427136D01*
X131713572Y-75433097D01*
X131736671Y-75441362D01*
X131758850Y-75451852D01*
X131779893Y-75464464D01*
X131799599Y-75479079D01*
X131817777Y-75495555D01*
X131834253Y-75513733D01*
X131848868Y-75533439D01*
X131861480Y-75554482D01*
X131871970Y-75576661D01*
X131880235Y-75599760D01*
X131886196Y-75623559D01*
X131889796Y-75647827D01*
X131891000Y-75672331D01*
X131891000Y-76322333D01*
X131889796Y-76346837D01*
X131886196Y-76371105D01*
X131880235Y-76394904D01*
X131871970Y-76418003D01*
X131861480Y-76440182D01*
X131848868Y-76461225D01*
X131834253Y-76480931D01*
X131817777Y-76499109D01*
X131799599Y-76515585D01*
X131779893Y-76530200D01*
X131758850Y-76542812D01*
X131736671Y-76553302D01*
X131713572Y-76561567D01*
X131689773Y-76567528D01*
X131665505Y-76571128D01*
X131641001Y-76572332D01*
X130740999Y-76572332D01*
X130716495Y-76571128D01*
X130692227Y-76567528D01*
X130668428Y-76561567D01*
X130645329Y-76553302D01*
X130623150Y-76542812D01*
X130602107Y-76530200D01*
X130582401Y-76515585D01*
X130564223Y-76499109D01*
X130547747Y-76480931D01*
X130533132Y-76461225D01*
X130520520Y-76440182D01*
X130510030Y-76418003D01*
X130501765Y-76394904D01*
X130495804Y-76371105D01*
X130492204Y-76346837D01*
X130491000Y-76322333D01*
X130491000Y-75672331D01*
X130492204Y-75647827D01*
X130495804Y-75623559D01*
X130501765Y-75599760D01*
X130510030Y-75576661D01*
X130520520Y-75554482D01*
X130533132Y-75533439D01*
X130547747Y-75513733D01*
X130564223Y-75495555D01*
X130582401Y-75479079D01*
X130602107Y-75464464D01*
X130623150Y-75451852D01*
X130645329Y-75441362D01*
X130668428Y-75433097D01*
X130692227Y-75427136D01*
X130716495Y-75423536D01*
X130740999Y-75422332D01*
X131641001Y-75422332D01*
X131665505Y-75423536D01*
X131665505Y-75423536D01*
G37*
D14*
X131191000Y-75997332D03*
D13*
G36*
X131665505Y-73373536D02*
G01*
X131689773Y-73377136D01*
X131713572Y-73383097D01*
X131736671Y-73391362D01*
X131758850Y-73401852D01*
X131779893Y-73414464D01*
X131799599Y-73429079D01*
X131817777Y-73445555D01*
X131834253Y-73463733D01*
X131848868Y-73483439D01*
X131861480Y-73504482D01*
X131871970Y-73526661D01*
X131880235Y-73549760D01*
X131886196Y-73573559D01*
X131889796Y-73597827D01*
X131891000Y-73622331D01*
X131891000Y-74272333D01*
X131889796Y-74296837D01*
X131886196Y-74321105D01*
X131880235Y-74344904D01*
X131871970Y-74368003D01*
X131861480Y-74390182D01*
X131848868Y-74411225D01*
X131834253Y-74430931D01*
X131817777Y-74449109D01*
X131799599Y-74465585D01*
X131779893Y-74480200D01*
X131758850Y-74492812D01*
X131736671Y-74503302D01*
X131713572Y-74511567D01*
X131689773Y-74517528D01*
X131665505Y-74521128D01*
X131641001Y-74522332D01*
X130740999Y-74522332D01*
X130716495Y-74521128D01*
X130692227Y-74517528D01*
X130668428Y-74511567D01*
X130645329Y-74503302D01*
X130623150Y-74492812D01*
X130602107Y-74480200D01*
X130582401Y-74465585D01*
X130564223Y-74449109D01*
X130547747Y-74430931D01*
X130533132Y-74411225D01*
X130520520Y-74390182D01*
X130510030Y-74368003D01*
X130501765Y-74344904D01*
X130495804Y-74321105D01*
X130492204Y-74296837D01*
X130491000Y-74272333D01*
X130491000Y-73622331D01*
X130492204Y-73597827D01*
X130495804Y-73573559D01*
X130501765Y-73549760D01*
X130510030Y-73526661D01*
X130520520Y-73504482D01*
X130533132Y-73483439D01*
X130547747Y-73463733D01*
X130564223Y-73445555D01*
X130582401Y-73429079D01*
X130602107Y-73414464D01*
X130623150Y-73401852D01*
X130645329Y-73391362D01*
X130668428Y-73383097D01*
X130692227Y-73377136D01*
X130716495Y-73373536D01*
X130740999Y-73372332D01*
X131641001Y-73372332D01*
X131665505Y-73373536D01*
X131665505Y-73373536D01*
G37*
D14*
X131191000Y-73947332D03*
D13*
G36*
X131665505Y-68208870D02*
G01*
X131689773Y-68212470D01*
X131713572Y-68218431D01*
X131736671Y-68226696D01*
X131758850Y-68237186D01*
X131779893Y-68249798D01*
X131799599Y-68264413D01*
X131817777Y-68280889D01*
X131834253Y-68299067D01*
X131848868Y-68318773D01*
X131861480Y-68339816D01*
X131871970Y-68361995D01*
X131880235Y-68385094D01*
X131886196Y-68408893D01*
X131889796Y-68433161D01*
X131891000Y-68457665D01*
X131891000Y-69107667D01*
X131889796Y-69132171D01*
X131886196Y-69156439D01*
X131880235Y-69180238D01*
X131871970Y-69203337D01*
X131861480Y-69225516D01*
X131848868Y-69246559D01*
X131834253Y-69266265D01*
X131817777Y-69284443D01*
X131799599Y-69300919D01*
X131779893Y-69315534D01*
X131758850Y-69328146D01*
X131736671Y-69338636D01*
X131713572Y-69346901D01*
X131689773Y-69352862D01*
X131665505Y-69356462D01*
X131641001Y-69357666D01*
X130740999Y-69357666D01*
X130716495Y-69356462D01*
X130692227Y-69352862D01*
X130668428Y-69346901D01*
X130645329Y-69338636D01*
X130623150Y-69328146D01*
X130602107Y-69315534D01*
X130582401Y-69300919D01*
X130564223Y-69284443D01*
X130547747Y-69266265D01*
X130533132Y-69246559D01*
X130520520Y-69225516D01*
X130510030Y-69203337D01*
X130501765Y-69180238D01*
X130495804Y-69156439D01*
X130492204Y-69132171D01*
X130491000Y-69107667D01*
X130491000Y-68457665D01*
X130492204Y-68433161D01*
X130495804Y-68408893D01*
X130501765Y-68385094D01*
X130510030Y-68361995D01*
X130520520Y-68339816D01*
X130533132Y-68318773D01*
X130547747Y-68299067D01*
X130564223Y-68280889D01*
X130582401Y-68264413D01*
X130602107Y-68249798D01*
X130623150Y-68237186D01*
X130645329Y-68226696D01*
X130668428Y-68218431D01*
X130692227Y-68212470D01*
X130716495Y-68208870D01*
X130740999Y-68207666D01*
X131641001Y-68207666D01*
X131665505Y-68208870D01*
X131665505Y-68208870D01*
G37*
D14*
X131191000Y-68782666D03*
D13*
G36*
X131665505Y-70258870D02*
G01*
X131689773Y-70262470D01*
X131713572Y-70268431D01*
X131736671Y-70276696D01*
X131758850Y-70287186D01*
X131779893Y-70299798D01*
X131799599Y-70314413D01*
X131817777Y-70330889D01*
X131834253Y-70349067D01*
X131848868Y-70368773D01*
X131861480Y-70389816D01*
X131871970Y-70411995D01*
X131880235Y-70435094D01*
X131886196Y-70458893D01*
X131889796Y-70483161D01*
X131891000Y-70507665D01*
X131891000Y-71157667D01*
X131889796Y-71182171D01*
X131886196Y-71206439D01*
X131880235Y-71230238D01*
X131871970Y-71253337D01*
X131861480Y-71275516D01*
X131848868Y-71296559D01*
X131834253Y-71316265D01*
X131817777Y-71334443D01*
X131799599Y-71350919D01*
X131779893Y-71365534D01*
X131758850Y-71378146D01*
X131736671Y-71388636D01*
X131713572Y-71396901D01*
X131689773Y-71402862D01*
X131665505Y-71406462D01*
X131641001Y-71407666D01*
X130740999Y-71407666D01*
X130716495Y-71406462D01*
X130692227Y-71402862D01*
X130668428Y-71396901D01*
X130645329Y-71388636D01*
X130623150Y-71378146D01*
X130602107Y-71365534D01*
X130582401Y-71350919D01*
X130564223Y-71334443D01*
X130547747Y-71316265D01*
X130533132Y-71296559D01*
X130520520Y-71275516D01*
X130510030Y-71253337D01*
X130501765Y-71230238D01*
X130495804Y-71206439D01*
X130492204Y-71182171D01*
X130491000Y-71157667D01*
X130491000Y-70507665D01*
X130492204Y-70483161D01*
X130495804Y-70458893D01*
X130501765Y-70435094D01*
X130510030Y-70411995D01*
X130520520Y-70389816D01*
X130533132Y-70368773D01*
X130547747Y-70349067D01*
X130564223Y-70330889D01*
X130582401Y-70314413D01*
X130602107Y-70299798D01*
X130623150Y-70287186D01*
X130645329Y-70276696D01*
X130668428Y-70268431D01*
X130692227Y-70262470D01*
X130716495Y-70258870D01*
X130740999Y-70257666D01*
X131641001Y-70257666D01*
X131665505Y-70258870D01*
X131665505Y-70258870D01*
G37*
D14*
X131191000Y-70832666D03*
D13*
G36*
X131665505Y-63044204D02*
G01*
X131689773Y-63047804D01*
X131713572Y-63053765D01*
X131736671Y-63062030D01*
X131758850Y-63072520D01*
X131779893Y-63085132D01*
X131799599Y-63099747D01*
X131817777Y-63116223D01*
X131834253Y-63134401D01*
X131848868Y-63154107D01*
X131861480Y-63175150D01*
X131871970Y-63197329D01*
X131880235Y-63220428D01*
X131886196Y-63244227D01*
X131889796Y-63268495D01*
X131891000Y-63292999D01*
X131891000Y-63943001D01*
X131889796Y-63967505D01*
X131886196Y-63991773D01*
X131880235Y-64015572D01*
X131871970Y-64038671D01*
X131861480Y-64060850D01*
X131848868Y-64081893D01*
X131834253Y-64101599D01*
X131817777Y-64119777D01*
X131799599Y-64136253D01*
X131779893Y-64150868D01*
X131758850Y-64163480D01*
X131736671Y-64173970D01*
X131713572Y-64182235D01*
X131689773Y-64188196D01*
X131665505Y-64191796D01*
X131641001Y-64193000D01*
X130740999Y-64193000D01*
X130716495Y-64191796D01*
X130692227Y-64188196D01*
X130668428Y-64182235D01*
X130645329Y-64173970D01*
X130623150Y-64163480D01*
X130602107Y-64150868D01*
X130582401Y-64136253D01*
X130564223Y-64119777D01*
X130547747Y-64101599D01*
X130533132Y-64081893D01*
X130520520Y-64060850D01*
X130510030Y-64038671D01*
X130501765Y-64015572D01*
X130495804Y-63991773D01*
X130492204Y-63967505D01*
X130491000Y-63943001D01*
X130491000Y-63292999D01*
X130492204Y-63268495D01*
X130495804Y-63244227D01*
X130501765Y-63220428D01*
X130510030Y-63197329D01*
X130520520Y-63175150D01*
X130533132Y-63154107D01*
X130547747Y-63134401D01*
X130564223Y-63116223D01*
X130582401Y-63099747D01*
X130602107Y-63085132D01*
X130623150Y-63072520D01*
X130645329Y-63062030D01*
X130668428Y-63053765D01*
X130692227Y-63047804D01*
X130716495Y-63044204D01*
X130740999Y-63043000D01*
X131641001Y-63043000D01*
X131665505Y-63044204D01*
X131665505Y-63044204D01*
G37*
D14*
X131191000Y-63618000D03*
D13*
G36*
X131665505Y-65094204D02*
G01*
X131689773Y-65097804D01*
X131713572Y-65103765D01*
X131736671Y-65112030D01*
X131758850Y-65122520D01*
X131779893Y-65135132D01*
X131799599Y-65149747D01*
X131817777Y-65166223D01*
X131834253Y-65184401D01*
X131848868Y-65204107D01*
X131861480Y-65225150D01*
X131871970Y-65247329D01*
X131880235Y-65270428D01*
X131886196Y-65294227D01*
X131889796Y-65318495D01*
X131891000Y-65342999D01*
X131891000Y-65993001D01*
X131889796Y-66017505D01*
X131886196Y-66041773D01*
X131880235Y-66065572D01*
X131871970Y-66088671D01*
X131861480Y-66110850D01*
X131848868Y-66131893D01*
X131834253Y-66151599D01*
X131817777Y-66169777D01*
X131799599Y-66186253D01*
X131779893Y-66200868D01*
X131758850Y-66213480D01*
X131736671Y-66223970D01*
X131713572Y-66232235D01*
X131689773Y-66238196D01*
X131665505Y-66241796D01*
X131641001Y-66243000D01*
X130740999Y-66243000D01*
X130716495Y-66241796D01*
X130692227Y-66238196D01*
X130668428Y-66232235D01*
X130645329Y-66223970D01*
X130623150Y-66213480D01*
X130602107Y-66200868D01*
X130582401Y-66186253D01*
X130564223Y-66169777D01*
X130547747Y-66151599D01*
X130533132Y-66131893D01*
X130520520Y-66110850D01*
X130510030Y-66088671D01*
X130501765Y-66065572D01*
X130495804Y-66041773D01*
X130492204Y-66017505D01*
X130491000Y-65993001D01*
X130491000Y-65342999D01*
X130492204Y-65318495D01*
X130495804Y-65294227D01*
X130501765Y-65270428D01*
X130510030Y-65247329D01*
X130520520Y-65225150D01*
X130533132Y-65204107D01*
X130547747Y-65184401D01*
X130564223Y-65166223D01*
X130582401Y-65149747D01*
X130602107Y-65135132D01*
X130623150Y-65122520D01*
X130645329Y-65112030D01*
X130668428Y-65103765D01*
X130692227Y-65097804D01*
X130716495Y-65094204D01*
X130740999Y-65093000D01*
X131641001Y-65093000D01*
X131665505Y-65094204D01*
X131665505Y-65094204D01*
G37*
D14*
X131191000Y-65668000D03*
D13*
G36*
X124680505Y-78538204D02*
G01*
X124704773Y-78541804D01*
X124728572Y-78547765D01*
X124751671Y-78556030D01*
X124773850Y-78566520D01*
X124794893Y-78579132D01*
X124814599Y-78593747D01*
X124832777Y-78610223D01*
X124849253Y-78628401D01*
X124863868Y-78648107D01*
X124876480Y-78669150D01*
X124886970Y-78691329D01*
X124895235Y-78714428D01*
X124901196Y-78738227D01*
X124904796Y-78762495D01*
X124906000Y-78786999D01*
X124906000Y-79437001D01*
X124904796Y-79461505D01*
X124901196Y-79485773D01*
X124895235Y-79509572D01*
X124886970Y-79532671D01*
X124876480Y-79554850D01*
X124863868Y-79575893D01*
X124849253Y-79595599D01*
X124832777Y-79613777D01*
X124814599Y-79630253D01*
X124794893Y-79644868D01*
X124773850Y-79657480D01*
X124751671Y-79667970D01*
X124728572Y-79676235D01*
X124704773Y-79682196D01*
X124680505Y-79685796D01*
X124656001Y-79687000D01*
X123755999Y-79687000D01*
X123731495Y-79685796D01*
X123707227Y-79682196D01*
X123683428Y-79676235D01*
X123660329Y-79667970D01*
X123638150Y-79657480D01*
X123617107Y-79644868D01*
X123597401Y-79630253D01*
X123579223Y-79613777D01*
X123562747Y-79595599D01*
X123548132Y-79575893D01*
X123535520Y-79554850D01*
X123525030Y-79532671D01*
X123516765Y-79509572D01*
X123510804Y-79485773D01*
X123507204Y-79461505D01*
X123506000Y-79437001D01*
X123506000Y-78786999D01*
X123507204Y-78762495D01*
X123510804Y-78738227D01*
X123516765Y-78714428D01*
X123525030Y-78691329D01*
X123535520Y-78669150D01*
X123548132Y-78648107D01*
X123562747Y-78628401D01*
X123579223Y-78610223D01*
X123597401Y-78593747D01*
X123617107Y-78579132D01*
X123638150Y-78566520D01*
X123660329Y-78556030D01*
X123683428Y-78547765D01*
X123707227Y-78541804D01*
X123731495Y-78538204D01*
X123755999Y-78537000D01*
X124656001Y-78537000D01*
X124680505Y-78538204D01*
X124680505Y-78538204D01*
G37*
D14*
X124206000Y-79112000D03*
D13*
G36*
X124680505Y-80588204D02*
G01*
X124704773Y-80591804D01*
X124728572Y-80597765D01*
X124751671Y-80606030D01*
X124773850Y-80616520D01*
X124794893Y-80629132D01*
X124814599Y-80643747D01*
X124832777Y-80660223D01*
X124849253Y-80678401D01*
X124863868Y-80698107D01*
X124876480Y-80719150D01*
X124886970Y-80741329D01*
X124895235Y-80764428D01*
X124901196Y-80788227D01*
X124904796Y-80812495D01*
X124906000Y-80836999D01*
X124906000Y-81487001D01*
X124904796Y-81511505D01*
X124901196Y-81535773D01*
X124895235Y-81559572D01*
X124886970Y-81582671D01*
X124876480Y-81604850D01*
X124863868Y-81625893D01*
X124849253Y-81645599D01*
X124832777Y-81663777D01*
X124814599Y-81680253D01*
X124794893Y-81694868D01*
X124773850Y-81707480D01*
X124751671Y-81717970D01*
X124728572Y-81726235D01*
X124704773Y-81732196D01*
X124680505Y-81735796D01*
X124656001Y-81737000D01*
X123755999Y-81737000D01*
X123731495Y-81735796D01*
X123707227Y-81732196D01*
X123683428Y-81726235D01*
X123660329Y-81717970D01*
X123638150Y-81707480D01*
X123617107Y-81694868D01*
X123597401Y-81680253D01*
X123579223Y-81663777D01*
X123562747Y-81645599D01*
X123548132Y-81625893D01*
X123535520Y-81604850D01*
X123525030Y-81582671D01*
X123516765Y-81559572D01*
X123510804Y-81535773D01*
X123507204Y-81511505D01*
X123506000Y-81487001D01*
X123506000Y-80836999D01*
X123507204Y-80812495D01*
X123510804Y-80788227D01*
X123516765Y-80764428D01*
X123525030Y-80741329D01*
X123535520Y-80719150D01*
X123548132Y-80698107D01*
X123562747Y-80678401D01*
X123579223Y-80660223D01*
X123597401Y-80643747D01*
X123617107Y-80629132D01*
X123638150Y-80616520D01*
X123660329Y-80606030D01*
X123683428Y-80597765D01*
X123707227Y-80591804D01*
X123731495Y-80588204D01*
X123755999Y-80587000D01*
X124656001Y-80587000D01*
X124680505Y-80588204D01*
X124680505Y-80588204D01*
G37*
D14*
X124206000Y-81162000D03*
D13*
G36*
X124680505Y-73358704D02*
G01*
X124704773Y-73362304D01*
X124728572Y-73368265D01*
X124751671Y-73376530D01*
X124773850Y-73387020D01*
X124794893Y-73399632D01*
X124814599Y-73414247D01*
X124832777Y-73430723D01*
X124849253Y-73448901D01*
X124863868Y-73468607D01*
X124876480Y-73489650D01*
X124886970Y-73511829D01*
X124895235Y-73534928D01*
X124901196Y-73558727D01*
X124904796Y-73582995D01*
X124906000Y-73607499D01*
X124906000Y-74257501D01*
X124904796Y-74282005D01*
X124901196Y-74306273D01*
X124895235Y-74330072D01*
X124886970Y-74353171D01*
X124876480Y-74375350D01*
X124863868Y-74396393D01*
X124849253Y-74416099D01*
X124832777Y-74434277D01*
X124814599Y-74450753D01*
X124794893Y-74465368D01*
X124773850Y-74477980D01*
X124751671Y-74488470D01*
X124728572Y-74496735D01*
X124704773Y-74502696D01*
X124680505Y-74506296D01*
X124656001Y-74507500D01*
X123755999Y-74507500D01*
X123731495Y-74506296D01*
X123707227Y-74502696D01*
X123683428Y-74496735D01*
X123660329Y-74488470D01*
X123638150Y-74477980D01*
X123617107Y-74465368D01*
X123597401Y-74450753D01*
X123579223Y-74434277D01*
X123562747Y-74416099D01*
X123548132Y-74396393D01*
X123535520Y-74375350D01*
X123525030Y-74353171D01*
X123516765Y-74330072D01*
X123510804Y-74306273D01*
X123507204Y-74282005D01*
X123506000Y-74257501D01*
X123506000Y-73607499D01*
X123507204Y-73582995D01*
X123510804Y-73558727D01*
X123516765Y-73534928D01*
X123525030Y-73511829D01*
X123535520Y-73489650D01*
X123548132Y-73468607D01*
X123562747Y-73448901D01*
X123579223Y-73430723D01*
X123597401Y-73414247D01*
X123617107Y-73399632D01*
X123638150Y-73387020D01*
X123660329Y-73376530D01*
X123683428Y-73368265D01*
X123707227Y-73362304D01*
X123731495Y-73358704D01*
X123755999Y-73357500D01*
X124656001Y-73357500D01*
X124680505Y-73358704D01*
X124680505Y-73358704D01*
G37*
D14*
X124206000Y-73932500D03*
D13*
G36*
X124680505Y-75408704D02*
G01*
X124704773Y-75412304D01*
X124728572Y-75418265D01*
X124751671Y-75426530D01*
X124773850Y-75437020D01*
X124794893Y-75449632D01*
X124814599Y-75464247D01*
X124832777Y-75480723D01*
X124849253Y-75498901D01*
X124863868Y-75518607D01*
X124876480Y-75539650D01*
X124886970Y-75561829D01*
X124895235Y-75584928D01*
X124901196Y-75608727D01*
X124904796Y-75632995D01*
X124906000Y-75657499D01*
X124906000Y-76307501D01*
X124904796Y-76332005D01*
X124901196Y-76356273D01*
X124895235Y-76380072D01*
X124886970Y-76403171D01*
X124876480Y-76425350D01*
X124863868Y-76446393D01*
X124849253Y-76466099D01*
X124832777Y-76484277D01*
X124814599Y-76500753D01*
X124794893Y-76515368D01*
X124773850Y-76527980D01*
X124751671Y-76538470D01*
X124728572Y-76546735D01*
X124704773Y-76552696D01*
X124680505Y-76556296D01*
X124656001Y-76557500D01*
X123755999Y-76557500D01*
X123731495Y-76556296D01*
X123707227Y-76552696D01*
X123683428Y-76546735D01*
X123660329Y-76538470D01*
X123638150Y-76527980D01*
X123617107Y-76515368D01*
X123597401Y-76500753D01*
X123579223Y-76484277D01*
X123562747Y-76466099D01*
X123548132Y-76446393D01*
X123535520Y-76425350D01*
X123525030Y-76403171D01*
X123516765Y-76380072D01*
X123510804Y-76356273D01*
X123507204Y-76332005D01*
X123506000Y-76307501D01*
X123506000Y-75657499D01*
X123507204Y-75632995D01*
X123510804Y-75608727D01*
X123516765Y-75584928D01*
X123525030Y-75561829D01*
X123535520Y-75539650D01*
X123548132Y-75518607D01*
X123562747Y-75498901D01*
X123579223Y-75480723D01*
X123597401Y-75464247D01*
X123617107Y-75449632D01*
X123638150Y-75437020D01*
X123660329Y-75426530D01*
X123683428Y-75418265D01*
X123707227Y-75412304D01*
X123731495Y-75408704D01*
X123755999Y-75407500D01*
X124656001Y-75407500D01*
X124680505Y-75408704D01*
X124680505Y-75408704D01*
G37*
D14*
X124206000Y-75982500D03*
D13*
G36*
X124680505Y-68208870D02*
G01*
X124704773Y-68212470D01*
X124728572Y-68218431D01*
X124751671Y-68226696D01*
X124773850Y-68237186D01*
X124794893Y-68249798D01*
X124814599Y-68264413D01*
X124832777Y-68280889D01*
X124849253Y-68299067D01*
X124863868Y-68318773D01*
X124876480Y-68339816D01*
X124886970Y-68361995D01*
X124895235Y-68385094D01*
X124901196Y-68408893D01*
X124904796Y-68433161D01*
X124906000Y-68457665D01*
X124906000Y-69107667D01*
X124904796Y-69132171D01*
X124901196Y-69156439D01*
X124895235Y-69180238D01*
X124886970Y-69203337D01*
X124876480Y-69225516D01*
X124863868Y-69246559D01*
X124849253Y-69266265D01*
X124832777Y-69284443D01*
X124814599Y-69300919D01*
X124794893Y-69315534D01*
X124773850Y-69328146D01*
X124751671Y-69338636D01*
X124728572Y-69346901D01*
X124704773Y-69352862D01*
X124680505Y-69356462D01*
X124656001Y-69357666D01*
X123755999Y-69357666D01*
X123731495Y-69356462D01*
X123707227Y-69352862D01*
X123683428Y-69346901D01*
X123660329Y-69338636D01*
X123638150Y-69328146D01*
X123617107Y-69315534D01*
X123597401Y-69300919D01*
X123579223Y-69284443D01*
X123562747Y-69266265D01*
X123548132Y-69246559D01*
X123535520Y-69225516D01*
X123525030Y-69203337D01*
X123516765Y-69180238D01*
X123510804Y-69156439D01*
X123507204Y-69132171D01*
X123506000Y-69107667D01*
X123506000Y-68457665D01*
X123507204Y-68433161D01*
X123510804Y-68408893D01*
X123516765Y-68385094D01*
X123525030Y-68361995D01*
X123535520Y-68339816D01*
X123548132Y-68318773D01*
X123562747Y-68299067D01*
X123579223Y-68280889D01*
X123597401Y-68264413D01*
X123617107Y-68249798D01*
X123638150Y-68237186D01*
X123660329Y-68226696D01*
X123683428Y-68218431D01*
X123707227Y-68212470D01*
X123731495Y-68208870D01*
X123755999Y-68207666D01*
X124656001Y-68207666D01*
X124680505Y-68208870D01*
X124680505Y-68208870D01*
G37*
D14*
X124206000Y-68782666D03*
D13*
G36*
X124680505Y-70258870D02*
G01*
X124704773Y-70262470D01*
X124728572Y-70268431D01*
X124751671Y-70276696D01*
X124773850Y-70287186D01*
X124794893Y-70299798D01*
X124814599Y-70314413D01*
X124832777Y-70330889D01*
X124849253Y-70349067D01*
X124863868Y-70368773D01*
X124876480Y-70389816D01*
X124886970Y-70411995D01*
X124895235Y-70435094D01*
X124901196Y-70458893D01*
X124904796Y-70483161D01*
X124906000Y-70507665D01*
X124906000Y-71157667D01*
X124904796Y-71182171D01*
X124901196Y-71206439D01*
X124895235Y-71230238D01*
X124886970Y-71253337D01*
X124876480Y-71275516D01*
X124863868Y-71296559D01*
X124849253Y-71316265D01*
X124832777Y-71334443D01*
X124814599Y-71350919D01*
X124794893Y-71365534D01*
X124773850Y-71378146D01*
X124751671Y-71388636D01*
X124728572Y-71396901D01*
X124704773Y-71402862D01*
X124680505Y-71406462D01*
X124656001Y-71407666D01*
X123755999Y-71407666D01*
X123731495Y-71406462D01*
X123707227Y-71402862D01*
X123683428Y-71396901D01*
X123660329Y-71388636D01*
X123638150Y-71378146D01*
X123617107Y-71365534D01*
X123597401Y-71350919D01*
X123579223Y-71334443D01*
X123562747Y-71316265D01*
X123548132Y-71296559D01*
X123535520Y-71275516D01*
X123525030Y-71253337D01*
X123516765Y-71230238D01*
X123510804Y-71206439D01*
X123507204Y-71182171D01*
X123506000Y-71157667D01*
X123506000Y-70507665D01*
X123507204Y-70483161D01*
X123510804Y-70458893D01*
X123516765Y-70435094D01*
X123525030Y-70411995D01*
X123535520Y-70389816D01*
X123548132Y-70368773D01*
X123562747Y-70349067D01*
X123579223Y-70330889D01*
X123597401Y-70314413D01*
X123617107Y-70299798D01*
X123638150Y-70287186D01*
X123660329Y-70276696D01*
X123683428Y-70268431D01*
X123707227Y-70262470D01*
X123731495Y-70258870D01*
X123755999Y-70257666D01*
X124656001Y-70257666D01*
X124680505Y-70258870D01*
X124680505Y-70258870D01*
G37*
D14*
X124206000Y-70832666D03*
D13*
G36*
X124680505Y-63044204D02*
G01*
X124704773Y-63047804D01*
X124728572Y-63053765D01*
X124751671Y-63062030D01*
X124773850Y-63072520D01*
X124794893Y-63085132D01*
X124814599Y-63099747D01*
X124832777Y-63116223D01*
X124849253Y-63134401D01*
X124863868Y-63154107D01*
X124876480Y-63175150D01*
X124886970Y-63197329D01*
X124895235Y-63220428D01*
X124901196Y-63244227D01*
X124904796Y-63268495D01*
X124906000Y-63292999D01*
X124906000Y-63943001D01*
X124904796Y-63967505D01*
X124901196Y-63991773D01*
X124895235Y-64015572D01*
X124886970Y-64038671D01*
X124876480Y-64060850D01*
X124863868Y-64081893D01*
X124849253Y-64101599D01*
X124832777Y-64119777D01*
X124814599Y-64136253D01*
X124794893Y-64150868D01*
X124773850Y-64163480D01*
X124751671Y-64173970D01*
X124728572Y-64182235D01*
X124704773Y-64188196D01*
X124680505Y-64191796D01*
X124656001Y-64193000D01*
X123755999Y-64193000D01*
X123731495Y-64191796D01*
X123707227Y-64188196D01*
X123683428Y-64182235D01*
X123660329Y-64173970D01*
X123638150Y-64163480D01*
X123617107Y-64150868D01*
X123597401Y-64136253D01*
X123579223Y-64119777D01*
X123562747Y-64101599D01*
X123548132Y-64081893D01*
X123535520Y-64060850D01*
X123525030Y-64038671D01*
X123516765Y-64015572D01*
X123510804Y-63991773D01*
X123507204Y-63967505D01*
X123506000Y-63943001D01*
X123506000Y-63292999D01*
X123507204Y-63268495D01*
X123510804Y-63244227D01*
X123516765Y-63220428D01*
X123525030Y-63197329D01*
X123535520Y-63175150D01*
X123548132Y-63154107D01*
X123562747Y-63134401D01*
X123579223Y-63116223D01*
X123597401Y-63099747D01*
X123617107Y-63085132D01*
X123638150Y-63072520D01*
X123660329Y-63062030D01*
X123683428Y-63053765D01*
X123707227Y-63047804D01*
X123731495Y-63044204D01*
X123755999Y-63043000D01*
X124656001Y-63043000D01*
X124680505Y-63044204D01*
X124680505Y-63044204D01*
G37*
D14*
X124206000Y-63618000D03*
D13*
G36*
X124680505Y-65094204D02*
G01*
X124704773Y-65097804D01*
X124728572Y-65103765D01*
X124751671Y-65112030D01*
X124773850Y-65122520D01*
X124794893Y-65135132D01*
X124814599Y-65149747D01*
X124832777Y-65166223D01*
X124849253Y-65184401D01*
X124863868Y-65204107D01*
X124876480Y-65225150D01*
X124886970Y-65247329D01*
X124895235Y-65270428D01*
X124901196Y-65294227D01*
X124904796Y-65318495D01*
X124906000Y-65342999D01*
X124906000Y-65993001D01*
X124904796Y-66017505D01*
X124901196Y-66041773D01*
X124895235Y-66065572D01*
X124886970Y-66088671D01*
X124876480Y-66110850D01*
X124863868Y-66131893D01*
X124849253Y-66151599D01*
X124832777Y-66169777D01*
X124814599Y-66186253D01*
X124794893Y-66200868D01*
X124773850Y-66213480D01*
X124751671Y-66223970D01*
X124728572Y-66232235D01*
X124704773Y-66238196D01*
X124680505Y-66241796D01*
X124656001Y-66243000D01*
X123755999Y-66243000D01*
X123731495Y-66241796D01*
X123707227Y-66238196D01*
X123683428Y-66232235D01*
X123660329Y-66223970D01*
X123638150Y-66213480D01*
X123617107Y-66200868D01*
X123597401Y-66186253D01*
X123579223Y-66169777D01*
X123562747Y-66151599D01*
X123548132Y-66131893D01*
X123535520Y-66110850D01*
X123525030Y-66088671D01*
X123516765Y-66065572D01*
X123510804Y-66041773D01*
X123507204Y-66017505D01*
X123506000Y-65993001D01*
X123506000Y-65342999D01*
X123507204Y-65318495D01*
X123510804Y-65294227D01*
X123516765Y-65270428D01*
X123525030Y-65247329D01*
X123535520Y-65225150D01*
X123548132Y-65204107D01*
X123562747Y-65184401D01*
X123579223Y-65166223D01*
X123597401Y-65149747D01*
X123617107Y-65135132D01*
X123638150Y-65122520D01*
X123660329Y-65112030D01*
X123683428Y-65103765D01*
X123707227Y-65097804D01*
X123731495Y-65094204D01*
X123755999Y-65093000D01*
X124656001Y-65093000D01*
X124680505Y-65094204D01*
X124680505Y-65094204D01*
G37*
D14*
X124206000Y-65668000D03*
D13*
G36*
X151724505Y-67627204D02*
G01*
X151748773Y-67630804D01*
X151772572Y-67636765D01*
X151795671Y-67645030D01*
X151817850Y-67655520D01*
X151838893Y-67668132D01*
X151858599Y-67682747D01*
X151876777Y-67699223D01*
X151893253Y-67717401D01*
X151907868Y-67737107D01*
X151920480Y-67758150D01*
X151930970Y-67780329D01*
X151939235Y-67803428D01*
X151945196Y-67827227D01*
X151948796Y-67851495D01*
X151950000Y-67875999D01*
X151950000Y-68776001D01*
X151948796Y-68800505D01*
X151945196Y-68824773D01*
X151939235Y-68848572D01*
X151930970Y-68871671D01*
X151920480Y-68893850D01*
X151907868Y-68914893D01*
X151893253Y-68934599D01*
X151876777Y-68952777D01*
X151858599Y-68969253D01*
X151838893Y-68983868D01*
X151817850Y-68996480D01*
X151795671Y-69006970D01*
X151772572Y-69015235D01*
X151748773Y-69021196D01*
X151724505Y-69024796D01*
X151700001Y-69026000D01*
X151049999Y-69026000D01*
X151025495Y-69024796D01*
X151001227Y-69021196D01*
X150977428Y-69015235D01*
X150954329Y-69006970D01*
X150932150Y-68996480D01*
X150911107Y-68983868D01*
X150891401Y-68969253D01*
X150873223Y-68952777D01*
X150856747Y-68934599D01*
X150842132Y-68914893D01*
X150829520Y-68893850D01*
X150819030Y-68871671D01*
X150810765Y-68848572D01*
X150804804Y-68824773D01*
X150801204Y-68800505D01*
X150800000Y-68776001D01*
X150800000Y-67875999D01*
X150801204Y-67851495D01*
X150804804Y-67827227D01*
X150810765Y-67803428D01*
X150819030Y-67780329D01*
X150829520Y-67758150D01*
X150842132Y-67737107D01*
X150856747Y-67717401D01*
X150873223Y-67699223D01*
X150891401Y-67682747D01*
X150911107Y-67668132D01*
X150932150Y-67655520D01*
X150954329Y-67645030D01*
X150977428Y-67636765D01*
X151001227Y-67630804D01*
X151025495Y-67627204D01*
X151049999Y-67626000D01*
X151700001Y-67626000D01*
X151724505Y-67627204D01*
X151724505Y-67627204D01*
G37*
D14*
X151375000Y-68326000D03*
D13*
G36*
X153774505Y-67627204D02*
G01*
X153798773Y-67630804D01*
X153822572Y-67636765D01*
X153845671Y-67645030D01*
X153867850Y-67655520D01*
X153888893Y-67668132D01*
X153908599Y-67682747D01*
X153926777Y-67699223D01*
X153943253Y-67717401D01*
X153957868Y-67737107D01*
X153970480Y-67758150D01*
X153980970Y-67780329D01*
X153989235Y-67803428D01*
X153995196Y-67827227D01*
X153998796Y-67851495D01*
X154000000Y-67875999D01*
X154000000Y-68776001D01*
X153998796Y-68800505D01*
X153995196Y-68824773D01*
X153989235Y-68848572D01*
X153980970Y-68871671D01*
X153970480Y-68893850D01*
X153957868Y-68914893D01*
X153943253Y-68934599D01*
X153926777Y-68952777D01*
X153908599Y-68969253D01*
X153888893Y-68983868D01*
X153867850Y-68996480D01*
X153845671Y-69006970D01*
X153822572Y-69015235D01*
X153798773Y-69021196D01*
X153774505Y-69024796D01*
X153750001Y-69026000D01*
X153099999Y-69026000D01*
X153075495Y-69024796D01*
X153051227Y-69021196D01*
X153027428Y-69015235D01*
X153004329Y-69006970D01*
X152982150Y-68996480D01*
X152961107Y-68983868D01*
X152941401Y-68969253D01*
X152923223Y-68952777D01*
X152906747Y-68934599D01*
X152892132Y-68914893D01*
X152879520Y-68893850D01*
X152869030Y-68871671D01*
X152860765Y-68848572D01*
X152854804Y-68824773D01*
X152851204Y-68800505D01*
X152850000Y-68776001D01*
X152850000Y-67875999D01*
X152851204Y-67851495D01*
X152854804Y-67827227D01*
X152860765Y-67803428D01*
X152869030Y-67780329D01*
X152879520Y-67758150D01*
X152892132Y-67737107D01*
X152906747Y-67717401D01*
X152923223Y-67699223D01*
X152941401Y-67682747D01*
X152961107Y-67668132D01*
X152982150Y-67655520D01*
X153004329Y-67645030D01*
X153027428Y-67636765D01*
X153051227Y-67630804D01*
X153075495Y-67627204D01*
X153099999Y-67626000D01*
X153750001Y-67626000D01*
X153774505Y-67627204D01*
X153774505Y-67627204D01*
G37*
D14*
X153425000Y-68326000D03*
D16*
X146067000Y-85598000D03*
X141187000Y-85598000D03*
D12*
X134620000Y-88138000D03*
D11*
X132080000Y-88138000D03*
X129540000Y-88138000D03*
X127000000Y-88138000D03*
X124460000Y-88138000D03*
X121920000Y-88138000D03*
D12*
X139700000Y-69596000D03*
D11*
X137160000Y-69596000D03*
X139700000Y-67056000D03*
X137160000Y-67056000D03*
X139700000Y-64516000D03*
X137160000Y-64516000D03*
D17*
X158750000Y-88694260D03*
D18*
X160268920Y-72044560D03*
X160268920Y-74815700D03*
X160268920Y-77584300D03*
X160268920Y-80355440D03*
X157231080Y-81739740D03*
X157231080Y-78971140D03*
X157231080Y-70660260D03*
X157231080Y-73428860D03*
X157231080Y-76200000D03*
D17*
X158750000Y-63705740D03*
D13*
G36*
X162419505Y-83438704D02*
G01*
X162443773Y-83442304D01*
X162467572Y-83448265D01*
X162490671Y-83456530D01*
X162512850Y-83467020D01*
X162533893Y-83479632D01*
X162553599Y-83494247D01*
X162571777Y-83510723D01*
X162588253Y-83528901D01*
X162602868Y-83548607D01*
X162615480Y-83569650D01*
X162625970Y-83591829D01*
X162634235Y-83614928D01*
X162640196Y-83638727D01*
X162643796Y-83662995D01*
X162645000Y-83687499D01*
X162645000Y-84587501D01*
X162643796Y-84612005D01*
X162640196Y-84636273D01*
X162634235Y-84660072D01*
X162625970Y-84683171D01*
X162615480Y-84705350D01*
X162602868Y-84726393D01*
X162588253Y-84746099D01*
X162571777Y-84764277D01*
X162553599Y-84780753D01*
X162533893Y-84795368D01*
X162512850Y-84807980D01*
X162490671Y-84818470D01*
X162467572Y-84826735D01*
X162443773Y-84832696D01*
X162419505Y-84836296D01*
X162395001Y-84837500D01*
X161744999Y-84837500D01*
X161720495Y-84836296D01*
X161696227Y-84832696D01*
X161672428Y-84826735D01*
X161649329Y-84818470D01*
X161627150Y-84807980D01*
X161606107Y-84795368D01*
X161586401Y-84780753D01*
X161568223Y-84764277D01*
X161551747Y-84746099D01*
X161537132Y-84726393D01*
X161524520Y-84705350D01*
X161514030Y-84683171D01*
X161505765Y-84660072D01*
X161499804Y-84636273D01*
X161496204Y-84612005D01*
X161495000Y-84587501D01*
X161495000Y-83687499D01*
X161496204Y-83662995D01*
X161499804Y-83638727D01*
X161505765Y-83614928D01*
X161514030Y-83591829D01*
X161524520Y-83569650D01*
X161537132Y-83548607D01*
X161551747Y-83528901D01*
X161568223Y-83510723D01*
X161586401Y-83494247D01*
X161606107Y-83479632D01*
X161627150Y-83467020D01*
X161649329Y-83456530D01*
X161672428Y-83448265D01*
X161696227Y-83442304D01*
X161720495Y-83438704D01*
X161744999Y-83437500D01*
X162395001Y-83437500D01*
X162419505Y-83438704D01*
X162419505Y-83438704D01*
G37*
D14*
X162070000Y-84137500D03*
D13*
G36*
X160369505Y-83438704D02*
G01*
X160393773Y-83442304D01*
X160417572Y-83448265D01*
X160440671Y-83456530D01*
X160462850Y-83467020D01*
X160483893Y-83479632D01*
X160503599Y-83494247D01*
X160521777Y-83510723D01*
X160538253Y-83528901D01*
X160552868Y-83548607D01*
X160565480Y-83569650D01*
X160575970Y-83591829D01*
X160584235Y-83614928D01*
X160590196Y-83638727D01*
X160593796Y-83662995D01*
X160595000Y-83687499D01*
X160595000Y-84587501D01*
X160593796Y-84612005D01*
X160590196Y-84636273D01*
X160584235Y-84660072D01*
X160575970Y-84683171D01*
X160565480Y-84705350D01*
X160552868Y-84726393D01*
X160538253Y-84746099D01*
X160521777Y-84764277D01*
X160503599Y-84780753D01*
X160483893Y-84795368D01*
X160462850Y-84807980D01*
X160440671Y-84818470D01*
X160417572Y-84826735D01*
X160393773Y-84832696D01*
X160369505Y-84836296D01*
X160345001Y-84837500D01*
X159694999Y-84837500D01*
X159670495Y-84836296D01*
X159646227Y-84832696D01*
X159622428Y-84826735D01*
X159599329Y-84818470D01*
X159577150Y-84807980D01*
X159556107Y-84795368D01*
X159536401Y-84780753D01*
X159518223Y-84764277D01*
X159501747Y-84746099D01*
X159487132Y-84726393D01*
X159474520Y-84705350D01*
X159464030Y-84683171D01*
X159455765Y-84660072D01*
X159449804Y-84636273D01*
X159446204Y-84612005D01*
X159445000Y-84587501D01*
X159445000Y-83687499D01*
X159446204Y-83662995D01*
X159449804Y-83638727D01*
X159455765Y-83614928D01*
X159464030Y-83591829D01*
X159474520Y-83569650D01*
X159487132Y-83548607D01*
X159501747Y-83528901D01*
X159518223Y-83510723D01*
X159536401Y-83494247D01*
X159556107Y-83479632D01*
X159577150Y-83467020D01*
X159599329Y-83456530D01*
X159622428Y-83448265D01*
X159646227Y-83442304D01*
X159670495Y-83438704D01*
X159694999Y-83437500D01*
X160345001Y-83437500D01*
X160369505Y-83438704D01*
X160369505Y-83438704D01*
G37*
D14*
X160020000Y-84137500D03*
D13*
G36*
X137634505Y-80724204D02*
G01*
X137658773Y-80727804D01*
X137682572Y-80733765D01*
X137705671Y-80742030D01*
X137727850Y-80752520D01*
X137748893Y-80765132D01*
X137768599Y-80779747D01*
X137786777Y-80796223D01*
X137803253Y-80814401D01*
X137817868Y-80834107D01*
X137830480Y-80855150D01*
X137840970Y-80877329D01*
X137849235Y-80900428D01*
X137855196Y-80924227D01*
X137858796Y-80948495D01*
X137860000Y-80972999D01*
X137860000Y-81623001D01*
X137858796Y-81647505D01*
X137855196Y-81671773D01*
X137849235Y-81695572D01*
X137840970Y-81718671D01*
X137830480Y-81740850D01*
X137817868Y-81761893D01*
X137803253Y-81781599D01*
X137786777Y-81799777D01*
X137768599Y-81816253D01*
X137748893Y-81830868D01*
X137727850Y-81843480D01*
X137705671Y-81853970D01*
X137682572Y-81862235D01*
X137658773Y-81868196D01*
X137634505Y-81871796D01*
X137610001Y-81873000D01*
X136709999Y-81873000D01*
X136685495Y-81871796D01*
X136661227Y-81868196D01*
X136637428Y-81862235D01*
X136614329Y-81853970D01*
X136592150Y-81843480D01*
X136571107Y-81830868D01*
X136551401Y-81816253D01*
X136533223Y-81799777D01*
X136516747Y-81781599D01*
X136502132Y-81761893D01*
X136489520Y-81740850D01*
X136479030Y-81718671D01*
X136470765Y-81695572D01*
X136464804Y-81671773D01*
X136461204Y-81647505D01*
X136460000Y-81623001D01*
X136460000Y-80972999D01*
X136461204Y-80948495D01*
X136464804Y-80924227D01*
X136470765Y-80900428D01*
X136479030Y-80877329D01*
X136489520Y-80855150D01*
X136502132Y-80834107D01*
X136516747Y-80814401D01*
X136533223Y-80796223D01*
X136551401Y-80779747D01*
X136571107Y-80765132D01*
X136592150Y-80752520D01*
X136614329Y-80742030D01*
X136637428Y-80733765D01*
X136661227Y-80727804D01*
X136685495Y-80724204D01*
X136709999Y-80723000D01*
X137610001Y-80723000D01*
X137634505Y-80724204D01*
X137634505Y-80724204D01*
G37*
D14*
X137160000Y-81298000D03*
D13*
G36*
X137634505Y-78674204D02*
G01*
X137658773Y-78677804D01*
X137682572Y-78683765D01*
X137705671Y-78692030D01*
X137727850Y-78702520D01*
X137748893Y-78715132D01*
X137768599Y-78729747D01*
X137786777Y-78746223D01*
X137803253Y-78764401D01*
X137817868Y-78784107D01*
X137830480Y-78805150D01*
X137840970Y-78827329D01*
X137849235Y-78850428D01*
X137855196Y-78874227D01*
X137858796Y-78898495D01*
X137860000Y-78922999D01*
X137860000Y-79573001D01*
X137858796Y-79597505D01*
X137855196Y-79621773D01*
X137849235Y-79645572D01*
X137840970Y-79668671D01*
X137830480Y-79690850D01*
X137817868Y-79711893D01*
X137803253Y-79731599D01*
X137786777Y-79749777D01*
X137768599Y-79766253D01*
X137748893Y-79780868D01*
X137727850Y-79793480D01*
X137705671Y-79803970D01*
X137682572Y-79812235D01*
X137658773Y-79818196D01*
X137634505Y-79821796D01*
X137610001Y-79823000D01*
X136709999Y-79823000D01*
X136685495Y-79821796D01*
X136661227Y-79818196D01*
X136637428Y-79812235D01*
X136614329Y-79803970D01*
X136592150Y-79793480D01*
X136571107Y-79780868D01*
X136551401Y-79766253D01*
X136533223Y-79749777D01*
X136516747Y-79731599D01*
X136502132Y-79711893D01*
X136489520Y-79690850D01*
X136479030Y-79668671D01*
X136470765Y-79645572D01*
X136464804Y-79621773D01*
X136461204Y-79597505D01*
X136460000Y-79573001D01*
X136460000Y-78922999D01*
X136461204Y-78898495D01*
X136464804Y-78874227D01*
X136470765Y-78850428D01*
X136479030Y-78827329D01*
X136489520Y-78805150D01*
X136502132Y-78784107D01*
X136516747Y-78764401D01*
X136533223Y-78746223D01*
X136551401Y-78729747D01*
X136571107Y-78715132D01*
X136592150Y-78702520D01*
X136614329Y-78692030D01*
X136637428Y-78683765D01*
X136661227Y-78677804D01*
X136685495Y-78674204D01*
X136709999Y-78673000D01*
X137610001Y-78673000D01*
X137634505Y-78674204D01*
X137634505Y-78674204D01*
G37*
D14*
X137160000Y-79248000D03*
D13*
G36*
X155779505Y-83438704D02*
G01*
X155803773Y-83442304D01*
X155827572Y-83448265D01*
X155850671Y-83456530D01*
X155872850Y-83467020D01*
X155893893Y-83479632D01*
X155913599Y-83494247D01*
X155931777Y-83510723D01*
X155948253Y-83528901D01*
X155962868Y-83548607D01*
X155975480Y-83569650D01*
X155985970Y-83591829D01*
X155994235Y-83614928D01*
X156000196Y-83638727D01*
X156003796Y-83662995D01*
X156005000Y-83687499D01*
X156005000Y-84587501D01*
X156003796Y-84612005D01*
X156000196Y-84636273D01*
X155994235Y-84660072D01*
X155985970Y-84683171D01*
X155975480Y-84705350D01*
X155962868Y-84726393D01*
X155948253Y-84746099D01*
X155931777Y-84764277D01*
X155913599Y-84780753D01*
X155893893Y-84795368D01*
X155872850Y-84807980D01*
X155850671Y-84818470D01*
X155827572Y-84826735D01*
X155803773Y-84832696D01*
X155779505Y-84836296D01*
X155755001Y-84837500D01*
X155104999Y-84837500D01*
X155080495Y-84836296D01*
X155056227Y-84832696D01*
X155032428Y-84826735D01*
X155009329Y-84818470D01*
X154987150Y-84807980D01*
X154966107Y-84795368D01*
X154946401Y-84780753D01*
X154928223Y-84764277D01*
X154911747Y-84746099D01*
X154897132Y-84726393D01*
X154884520Y-84705350D01*
X154874030Y-84683171D01*
X154865765Y-84660072D01*
X154859804Y-84636273D01*
X154856204Y-84612005D01*
X154855000Y-84587501D01*
X154855000Y-83687499D01*
X154856204Y-83662995D01*
X154859804Y-83638727D01*
X154865765Y-83614928D01*
X154874030Y-83591829D01*
X154884520Y-83569650D01*
X154897132Y-83548607D01*
X154911747Y-83528901D01*
X154928223Y-83510723D01*
X154946401Y-83494247D01*
X154966107Y-83479632D01*
X154987150Y-83467020D01*
X155009329Y-83456530D01*
X155032428Y-83448265D01*
X155056227Y-83442304D01*
X155080495Y-83438704D01*
X155104999Y-83437500D01*
X155755001Y-83437500D01*
X155779505Y-83438704D01*
X155779505Y-83438704D01*
G37*
D14*
X155430000Y-84137500D03*
D13*
G36*
X157829505Y-83438704D02*
G01*
X157853773Y-83442304D01*
X157877572Y-83448265D01*
X157900671Y-83456530D01*
X157922850Y-83467020D01*
X157943893Y-83479632D01*
X157963599Y-83494247D01*
X157981777Y-83510723D01*
X157998253Y-83528901D01*
X158012868Y-83548607D01*
X158025480Y-83569650D01*
X158035970Y-83591829D01*
X158044235Y-83614928D01*
X158050196Y-83638727D01*
X158053796Y-83662995D01*
X158055000Y-83687499D01*
X158055000Y-84587501D01*
X158053796Y-84612005D01*
X158050196Y-84636273D01*
X158044235Y-84660072D01*
X158035970Y-84683171D01*
X158025480Y-84705350D01*
X158012868Y-84726393D01*
X157998253Y-84746099D01*
X157981777Y-84764277D01*
X157963599Y-84780753D01*
X157943893Y-84795368D01*
X157922850Y-84807980D01*
X157900671Y-84818470D01*
X157877572Y-84826735D01*
X157853773Y-84832696D01*
X157829505Y-84836296D01*
X157805001Y-84837500D01*
X157154999Y-84837500D01*
X157130495Y-84836296D01*
X157106227Y-84832696D01*
X157082428Y-84826735D01*
X157059329Y-84818470D01*
X157037150Y-84807980D01*
X157016107Y-84795368D01*
X156996401Y-84780753D01*
X156978223Y-84764277D01*
X156961747Y-84746099D01*
X156947132Y-84726393D01*
X156934520Y-84705350D01*
X156924030Y-84683171D01*
X156915765Y-84660072D01*
X156909804Y-84636273D01*
X156906204Y-84612005D01*
X156905000Y-84587501D01*
X156905000Y-83687499D01*
X156906204Y-83662995D01*
X156909804Y-83638727D01*
X156915765Y-83614928D01*
X156924030Y-83591829D01*
X156934520Y-83569650D01*
X156947132Y-83548607D01*
X156961747Y-83528901D01*
X156978223Y-83510723D01*
X156996401Y-83494247D01*
X157016107Y-83479632D01*
X157037150Y-83467020D01*
X157059329Y-83456530D01*
X157082428Y-83448265D01*
X157106227Y-83442304D01*
X157130495Y-83438704D01*
X157154999Y-83437500D01*
X157805001Y-83437500D01*
X157829505Y-83438704D01*
X157829505Y-83438704D01*
G37*
D14*
X157480000Y-84137500D03*
D13*
G36*
X153774505Y-64896704D02*
G01*
X153798773Y-64900304D01*
X153822572Y-64906265D01*
X153845671Y-64914530D01*
X153867850Y-64925020D01*
X153888893Y-64937632D01*
X153908599Y-64952247D01*
X153926777Y-64968723D01*
X153943253Y-64986901D01*
X153957868Y-65006607D01*
X153970480Y-65027650D01*
X153980970Y-65049829D01*
X153989235Y-65072928D01*
X153995196Y-65096727D01*
X153998796Y-65120995D01*
X154000000Y-65145499D01*
X154000000Y-66045501D01*
X153998796Y-66070005D01*
X153995196Y-66094273D01*
X153989235Y-66118072D01*
X153980970Y-66141171D01*
X153970480Y-66163350D01*
X153957868Y-66184393D01*
X153943253Y-66204099D01*
X153926777Y-66222277D01*
X153908599Y-66238753D01*
X153888893Y-66253368D01*
X153867850Y-66265980D01*
X153845671Y-66276470D01*
X153822572Y-66284735D01*
X153798773Y-66290696D01*
X153774505Y-66294296D01*
X153750001Y-66295500D01*
X153099999Y-66295500D01*
X153075495Y-66294296D01*
X153051227Y-66290696D01*
X153027428Y-66284735D01*
X153004329Y-66276470D01*
X152982150Y-66265980D01*
X152961107Y-66253368D01*
X152941401Y-66238753D01*
X152923223Y-66222277D01*
X152906747Y-66204099D01*
X152892132Y-66184393D01*
X152879520Y-66163350D01*
X152869030Y-66141171D01*
X152860765Y-66118072D01*
X152854804Y-66094273D01*
X152851204Y-66070005D01*
X152850000Y-66045501D01*
X152850000Y-65145499D01*
X152851204Y-65120995D01*
X152854804Y-65096727D01*
X152860765Y-65072928D01*
X152869030Y-65049829D01*
X152879520Y-65027650D01*
X152892132Y-65006607D01*
X152906747Y-64986901D01*
X152923223Y-64968723D01*
X152941401Y-64952247D01*
X152961107Y-64937632D01*
X152982150Y-64925020D01*
X153004329Y-64914530D01*
X153027428Y-64906265D01*
X153051227Y-64900304D01*
X153075495Y-64896704D01*
X153099999Y-64895500D01*
X153750001Y-64895500D01*
X153774505Y-64896704D01*
X153774505Y-64896704D01*
G37*
D14*
X153425000Y-65595500D03*
D13*
G36*
X151724505Y-64896704D02*
G01*
X151748773Y-64900304D01*
X151772572Y-64906265D01*
X151795671Y-64914530D01*
X151817850Y-64925020D01*
X151838893Y-64937632D01*
X151858599Y-64952247D01*
X151876777Y-64968723D01*
X151893253Y-64986901D01*
X151907868Y-65006607D01*
X151920480Y-65027650D01*
X151930970Y-65049829D01*
X151939235Y-65072928D01*
X151945196Y-65096727D01*
X151948796Y-65120995D01*
X151950000Y-65145499D01*
X151950000Y-66045501D01*
X151948796Y-66070005D01*
X151945196Y-66094273D01*
X151939235Y-66118072D01*
X151930970Y-66141171D01*
X151920480Y-66163350D01*
X151907868Y-66184393D01*
X151893253Y-66204099D01*
X151876777Y-66222277D01*
X151858599Y-66238753D01*
X151838893Y-66253368D01*
X151817850Y-66265980D01*
X151795671Y-66276470D01*
X151772572Y-66284735D01*
X151748773Y-66290696D01*
X151724505Y-66294296D01*
X151700001Y-66295500D01*
X151049999Y-66295500D01*
X151025495Y-66294296D01*
X151001227Y-66290696D01*
X150977428Y-66284735D01*
X150954329Y-66276470D01*
X150932150Y-66265980D01*
X150911107Y-66253368D01*
X150891401Y-66238753D01*
X150873223Y-66222277D01*
X150856747Y-66204099D01*
X150842132Y-66184393D01*
X150829520Y-66163350D01*
X150819030Y-66141171D01*
X150810765Y-66118072D01*
X150804804Y-66094273D01*
X150801204Y-66070005D01*
X150800000Y-66045501D01*
X150800000Y-65145499D01*
X150801204Y-65120995D01*
X150804804Y-65096727D01*
X150810765Y-65072928D01*
X150819030Y-65049829D01*
X150829520Y-65027650D01*
X150842132Y-65006607D01*
X150856747Y-64986901D01*
X150873223Y-64968723D01*
X150891401Y-64952247D01*
X150911107Y-64937632D01*
X150932150Y-64925020D01*
X150954329Y-64914530D01*
X150977428Y-64906265D01*
X151001227Y-64900304D01*
X151025495Y-64896704D01*
X151049999Y-64895500D01*
X151700001Y-64895500D01*
X151724505Y-64896704D01*
X151724505Y-64896704D01*
G37*
D14*
X151375000Y-65595500D03*
M02*
