G04 #@! TF.GenerationSoftware,KiCad,Pcbnew,5.1.4-e60b266~84~ubuntu16.04.1*
G04 #@! TF.CreationDate,2019-11-10T18:33:16+00:00*
G04 #@! TF.ProjectId,OpenPSX2AmigaPadAdapter,4f70656e-5053-4583-9241-6d6967615061,2*
G04 #@! TF.SameCoordinates,Original*
G04 #@! TF.FileFunction,Legend,Top*
G04 #@! TF.FilePolarity,Positive*
%FSLAX46Y46*%
G04 Gerber Fmt 4.6, Leading zero omitted, Abs format (unit mm)*
G04 Created by KiCad (PCBNEW 5.1.4-e60b266~84~ubuntu16.04.1) date 2019-11-10 18:33:16*
%MOMM*%
%LPD*%
G04 APERTURE LIST*
%ADD10C,0.400000*%
%ADD11C,0.120000*%
%ADD12C,0.150000*%
%ADD13C,0.050000*%
%ADD14C,0.381000*%
%ADD15C,0.304800*%
G04 APERTURE END LIST*
D10*
X143129000Y-79248000D02*
G75*
G03X143129000Y-79248000I-127000J0D01*
G01*
D11*
X131451428Y-90785904D02*
X131451428Y-89985904D01*
X131908571Y-90785904D01*
X131908571Y-89985904D01*
X132746666Y-90709714D02*
X132708571Y-90747809D01*
X132594285Y-90785904D01*
X132518095Y-90785904D01*
X132403809Y-90747809D01*
X132327619Y-90671619D01*
X132289523Y-90595428D01*
X132251428Y-90443047D01*
X132251428Y-90328761D01*
X132289523Y-90176380D01*
X132327619Y-90100190D01*
X132403809Y-90024000D01*
X132518095Y-89985904D01*
X132594285Y-89985904D01*
X132708571Y-90024000D01*
X132746666Y-90062095D01*
D12*
X126817619Y-63317380D02*
X126484285Y-62841190D01*
X126246190Y-63317380D02*
X126246190Y-62317380D01*
X126627142Y-62317380D01*
X126722380Y-62365000D01*
X126770000Y-62412619D01*
X126817619Y-62507857D01*
X126817619Y-62650714D01*
X126770000Y-62745952D01*
X126722380Y-62793571D01*
X126627142Y-62841190D01*
X126246190Y-62841190D01*
X127246190Y-62793571D02*
X127579523Y-62793571D01*
X127722380Y-63317380D02*
X127246190Y-63317380D01*
X127246190Y-62317380D01*
X127722380Y-62317380D01*
X128103333Y-63269761D02*
X128246190Y-63317380D01*
X128484285Y-63317380D01*
X128579523Y-63269761D01*
X128627142Y-63222142D01*
X128674761Y-63126904D01*
X128674761Y-63031666D01*
X128627142Y-62936428D01*
X128579523Y-62888809D01*
X128484285Y-62841190D01*
X128293809Y-62793571D01*
X128198571Y-62745952D01*
X128150952Y-62698333D01*
X128103333Y-62603095D01*
X128103333Y-62507857D01*
X128150952Y-62412619D01*
X128198571Y-62365000D01*
X128293809Y-62317380D01*
X128531904Y-62317380D01*
X128674761Y-62365000D01*
X129103333Y-62793571D02*
X129436666Y-62793571D01*
X129579523Y-63317380D02*
X129103333Y-63317380D01*
X129103333Y-62317380D01*
X129579523Y-62317380D01*
X129865238Y-62317380D02*
X130436666Y-62317380D01*
X130150952Y-63317380D02*
X130150952Y-62317380D01*
D13*
X113792000Y-95758000D02*
X110871000Y-95758000D01*
X113792000Y-56134000D02*
X113792000Y-95758000D01*
X110871000Y-56134000D02*
X113792000Y-56134000D01*
X110871000Y-95758000D02*
X110871000Y-56134000D01*
D12*
X136948809Y-62682380D02*
X136948809Y-61682380D01*
X137996428Y-62587142D02*
X137948809Y-62634761D01*
X137805952Y-62682380D01*
X137710714Y-62682380D01*
X137567857Y-62634761D01*
X137472619Y-62539523D01*
X137425000Y-62444285D01*
X137377380Y-62253809D01*
X137377380Y-62110952D01*
X137425000Y-61920476D01*
X137472619Y-61825238D01*
X137567857Y-61730000D01*
X137710714Y-61682380D01*
X137805952Y-61682380D01*
X137948809Y-61730000D01*
X137996428Y-61777619D01*
X138377380Y-62634761D02*
X138520238Y-62682380D01*
X138758333Y-62682380D01*
X138853571Y-62634761D01*
X138901190Y-62587142D01*
X138948809Y-62491904D01*
X138948809Y-62396666D01*
X138901190Y-62301428D01*
X138853571Y-62253809D01*
X138758333Y-62206190D01*
X138567857Y-62158571D01*
X138472619Y-62110952D01*
X138425000Y-62063333D01*
X138377380Y-61968095D01*
X138377380Y-61872857D01*
X138425000Y-61777619D01*
X138472619Y-61730000D01*
X138567857Y-61682380D01*
X138805952Y-61682380D01*
X138948809Y-61730000D01*
X139377380Y-62682380D02*
X139377380Y-61682380D01*
X139758333Y-61682380D01*
X139853571Y-61730000D01*
X139901190Y-61777619D01*
X139948809Y-61872857D01*
X139948809Y-62015714D01*
X139901190Y-62110952D01*
X139853571Y-62158571D01*
X139758333Y-62206190D01*
X139377380Y-62206190D01*
X127293809Y-85780571D02*
X126960476Y-85780571D01*
X126960476Y-86304380D02*
X126960476Y-85304380D01*
X127436666Y-85304380D01*
X127674761Y-85304380D02*
X128246190Y-85304380D01*
X127960476Y-86304380D02*
X127960476Y-85304380D01*
X128579523Y-86304380D02*
X128579523Y-85304380D01*
X128817619Y-85304380D01*
X128960476Y-85352000D01*
X129055714Y-85447238D01*
X129103333Y-85542476D01*
X129150952Y-85732952D01*
X129150952Y-85875809D01*
X129103333Y-86066285D01*
X129055714Y-86161523D01*
X128960476Y-86256761D01*
X128817619Y-86304380D01*
X128579523Y-86304380D01*
X129579523Y-86304380D02*
X129579523Y-85304380D01*
D11*
X133591428Y-90481142D02*
X134200952Y-90481142D01*
X133896190Y-90785904D02*
X133896190Y-90176380D01*
X134962857Y-89985904D02*
X134581904Y-89985904D01*
X134543809Y-90366857D01*
X134581904Y-90328761D01*
X134658095Y-90290666D01*
X134848571Y-90290666D01*
X134924761Y-90328761D01*
X134962857Y-90366857D01*
X135000952Y-90443047D01*
X135000952Y-90633523D01*
X134962857Y-90709714D01*
X134924761Y-90747809D01*
X134848571Y-90785904D01*
X134658095Y-90785904D01*
X134581904Y-90747809D01*
X134543809Y-90709714D01*
X135229523Y-89985904D02*
X135496190Y-90785904D01*
X135762857Y-89985904D01*
X128930476Y-90024000D02*
X128854285Y-89985904D01*
X128740000Y-89985904D01*
X128625714Y-90024000D01*
X128549523Y-90100190D01*
X128511428Y-90176380D01*
X128473333Y-90328761D01*
X128473333Y-90443047D01*
X128511428Y-90595428D01*
X128549523Y-90671619D01*
X128625714Y-90747809D01*
X128740000Y-90785904D01*
X128816190Y-90785904D01*
X128930476Y-90747809D01*
X128968571Y-90709714D01*
X128968571Y-90443047D01*
X128816190Y-90443047D01*
X129311428Y-90785904D02*
X129311428Y-89985904D01*
X129768571Y-90785904D01*
X129768571Y-89985904D01*
X130149523Y-90785904D02*
X130149523Y-89985904D01*
X130340000Y-89985904D01*
X130454285Y-90024000D01*
X130530476Y-90100190D01*
X130568571Y-90176380D01*
X130606666Y-90328761D01*
X130606666Y-90443047D01*
X130568571Y-90595428D01*
X130530476Y-90671619D01*
X130454285Y-90747809D01*
X130340000Y-90785904D01*
X130149523Y-90785904D01*
X121005714Y-90785904D02*
X121005714Y-89985904D01*
X121196190Y-89985904D01*
X121310476Y-90024000D01*
X121386666Y-90100190D01*
X121424761Y-90176380D01*
X121462857Y-90328761D01*
X121462857Y-90443047D01*
X121424761Y-90595428D01*
X121386666Y-90671619D01*
X121310476Y-90747809D01*
X121196190Y-90785904D01*
X121005714Y-90785904D01*
X121691428Y-89985904D02*
X122148571Y-89985904D01*
X121920000Y-90785904D02*
X121920000Y-89985904D01*
X122872380Y-90785904D02*
X122605714Y-90404952D01*
X122415238Y-90785904D02*
X122415238Y-89985904D01*
X122720000Y-89985904D01*
X122796190Y-90024000D01*
X122834285Y-90062095D01*
X122872380Y-90138285D01*
X122872380Y-90252571D01*
X122834285Y-90328761D01*
X122796190Y-90366857D01*
X122720000Y-90404952D01*
X122415238Y-90404952D01*
X124326666Y-90785904D02*
X124060000Y-90404952D01*
X123869523Y-90785904D02*
X123869523Y-89985904D01*
X124174285Y-89985904D01*
X124250476Y-90024000D01*
X124288571Y-90062095D01*
X124326666Y-90138285D01*
X124326666Y-90252571D01*
X124288571Y-90328761D01*
X124250476Y-90366857D01*
X124174285Y-90404952D01*
X123869523Y-90404952D01*
X124593333Y-89985904D02*
X125126666Y-90785904D01*
X125126666Y-89985904D02*
X124593333Y-90785904D01*
X126390476Y-89985904D02*
X126847619Y-89985904D01*
X126619047Y-90785904D02*
X126619047Y-89985904D01*
X127038095Y-89985904D02*
X127571428Y-90785904D01*
X127571428Y-89985904D02*
X127038095Y-90785904D01*
D13*
X167640000Y-91694000D02*
X127762000Y-91694000D01*
X127762000Y-91694000D02*
X115189000Y-98044000D01*
X108712000Y-98044000D02*
X115189000Y-98044000D01*
X108712000Y-53848000D02*
X108712000Y-98044000D01*
X114681000Y-53848000D02*
X108712000Y-53848000D01*
X127762000Y-60706000D02*
X114681000Y-53848000D01*
X127762000Y-60706000D02*
X167640000Y-60706000D01*
X167640000Y-60706000D02*
X167640000Y-91694000D01*
D11*
X134310000Y-76867936D02*
X134310000Y-78072064D01*
X132490000Y-76867936D02*
X132490000Y-78072064D01*
X122290000Y-78072064D02*
X122290000Y-76867936D01*
X124110000Y-78072064D02*
X124110000Y-76867936D01*
X139900748Y-89333000D02*
X140423252Y-89333000D01*
X139900748Y-90753000D02*
X140423252Y-90753000D01*
X147353252Y-89333000D02*
X146830748Y-89333000D01*
X147353252Y-90753000D02*
X146830748Y-90753000D01*
X151974000Y-67874000D02*
X149114000Y-67874000D01*
X151974000Y-69794000D02*
X151974000Y-67874000D01*
X149114000Y-69794000D02*
X151974000Y-69794000D01*
X149114000Y-65984000D02*
X151974000Y-65984000D01*
X151974000Y-65984000D02*
X151974000Y-64064000D01*
X151974000Y-64064000D02*
X149114000Y-64064000D01*
X145295252Y-69544000D02*
X144772748Y-69544000D01*
X145295252Y-68124000D02*
X144772748Y-68124000D01*
X145295252Y-64314000D02*
X144772748Y-64314000D01*
X145295252Y-65734000D02*
X144772748Y-65734000D01*
D12*
X142171000Y-80079000D02*
X142396000Y-80079000D01*
X142171000Y-72829000D02*
X142496000Y-72829000D01*
X149421000Y-72829000D02*
X149096000Y-72829000D01*
X149421000Y-80079000D02*
X149096000Y-80079000D01*
X142171000Y-80079000D02*
X142171000Y-79754000D01*
X149421000Y-80079000D02*
X149421000Y-79754000D01*
X149421000Y-72829000D02*
X149421000Y-73154000D01*
X142171000Y-72829000D02*
X142171000Y-73154000D01*
X142396000Y-80079000D02*
X142396000Y-81504000D01*
D11*
X131680000Y-76102000D02*
X130420000Y-76102000D01*
X124860000Y-76102000D02*
X126120000Y-76102000D01*
X131680000Y-79862000D02*
X131680000Y-76102000D01*
X124860000Y-82112000D02*
X124860000Y-76102000D01*
X146752000Y-88123000D02*
G75*
G03X146752000Y-83073000I0J2525000D01*
G01*
X140502000Y-88123000D02*
G75*
G02X140502000Y-83073000I0J2525000D01*
G01*
X140502000Y-88123000D02*
X146752000Y-88123000D01*
X140502000Y-83073000D02*
X146752000Y-83073000D01*
X120590000Y-86808000D02*
X120590000Y-89468000D01*
X133350000Y-86808000D02*
X120590000Y-86808000D01*
X133350000Y-89468000D02*
X120590000Y-89468000D01*
X133350000Y-86808000D02*
X133350000Y-89468000D01*
X134620000Y-86808000D02*
X135950000Y-86808000D01*
X135950000Y-86808000D02*
X135950000Y-88138000D01*
X141030000Y-63186000D02*
X135830000Y-63186000D01*
X141030000Y-68326000D02*
X141030000Y-63186000D01*
X135830000Y-70926000D02*
X135830000Y-63186000D01*
X141030000Y-68326000D02*
X138430000Y-68326000D01*
X138430000Y-68326000D02*
X138430000Y-70926000D01*
X138430000Y-70926000D02*
X135830000Y-70926000D01*
X141030000Y-69596000D02*
X141030000Y-70926000D01*
X141030000Y-70926000D02*
X139700000Y-70926000D01*
D14*
X155448000Y-91694000D02*
X170434000Y-91694000D01*
X155448000Y-60706000D02*
X155448000Y-91694000D01*
X170434000Y-60706000D02*
X155448000Y-60706000D01*
X170434000Y-91694000D02*
X170434000Y-60706000D01*
X176276000Y-68072000D02*
X170434000Y-68072000D01*
X176276000Y-84328000D02*
X176276000Y-68072000D01*
X170434000Y-84328000D02*
X176276000Y-84328000D01*
X176276000Y-86233000D02*
X170561000Y-86233000D01*
X176276000Y-91313000D02*
X176276000Y-86233000D01*
X170434000Y-91313000D02*
X176276000Y-91313000D01*
X176276000Y-61087000D02*
X170561000Y-61087000D01*
X176276000Y-66167000D02*
X176276000Y-61087000D01*
X170434000Y-66167000D02*
X176276000Y-66167000D01*
X170434000Y-65151000D02*
X176276000Y-65151000D01*
X170434000Y-62103000D02*
X176276000Y-62103000D01*
X170434000Y-90297000D02*
X176276000Y-90297000D01*
X170434000Y-87249000D02*
X176276000Y-87249000D01*
X167767000Y-91694000D02*
X167767000Y-60706000D01*
X167767000Y-85217000D02*
X155448000Y-85217000D01*
X167767000Y-67183000D02*
X155448000Y-67183000D01*
X165227000Y-87630000D02*
X167767000Y-87630000D01*
X165227000Y-89916000D02*
X165227000Y-87630000D01*
X167767000Y-89916000D02*
X165227000Y-89916000D01*
X165227000Y-62484000D02*
X167767000Y-62484000D01*
X165227000Y-64770000D02*
X165227000Y-62484000D01*
X167767000Y-64770000D02*
X165227000Y-64770000D01*
X167640000Y-86360000D02*
X167386000Y-86360000D01*
X167640000Y-91186000D02*
X167640000Y-86360000D01*
X167386000Y-91186000D02*
X167640000Y-91186000D01*
X167386000Y-86360000D02*
X167386000Y-91186000D01*
X167640000Y-61341000D02*
X167386000Y-61341000D01*
X167640000Y-65913000D02*
X167640000Y-61341000D01*
X167386000Y-65913000D02*
X167640000Y-65913000D01*
X167386000Y-61341000D02*
X167386000Y-65913000D01*
X158750000Y-90297000D02*
X158750000Y-87122000D01*
X161036000Y-90932000D02*
X158750000Y-90297000D01*
X167386000Y-90932000D02*
X161036000Y-90932000D01*
X160909000Y-86614000D02*
X167386000Y-86614000D01*
X158750000Y-87122000D02*
X160909000Y-86614000D01*
X160909000Y-61595000D02*
X167386000Y-61595000D01*
X158750000Y-62103000D02*
X160909000Y-61595000D01*
X158750000Y-65278000D02*
X158750000Y-62103000D01*
X160782000Y-65659000D02*
X158750000Y-65278000D01*
X167386000Y-65659000D02*
X160782000Y-65659000D01*
D11*
X125120000Y-69594000D02*
X125120000Y-70044000D01*
X125120000Y-70044000D02*
X131420000Y-70044000D01*
X131420000Y-70044000D02*
X131420000Y-69644000D01*
X125120000Y-68294000D02*
X125120000Y-65594000D01*
X131420000Y-65594000D02*
X131420000Y-68294000D01*
X125120000Y-63844000D02*
X131420000Y-63844000D01*
X131420000Y-63844000D02*
X131420000Y-64294000D01*
X125120000Y-64294000D02*
X125120000Y-63844000D01*
X151258000Y-88998000D02*
X154558000Y-88998000D01*
X154558000Y-88998000D02*
X154558000Y-83598000D01*
X151258000Y-88998000D02*
X151258000Y-83598000D01*
X141837000Y-85287000D02*
X142637000Y-85287000D01*
X141837000Y-87687000D02*
X141837000Y-85687000D01*
X142637000Y-87687000D02*
X141837000Y-87687000D01*
X145437000Y-87687000D02*
X144437000Y-87687000D01*
X145437000Y-85687000D02*
X145437000Y-87687000D01*
X144437000Y-85287000D02*
X145437000Y-85287000D01*
X144437000Y-85287000D02*
X144437000Y-84887000D01*
X145637000Y-87687000D02*
X145637000Y-85687000D01*
X141837000Y-85687000D02*
X141837000Y-85287000D01*
X145437000Y-85687000D02*
X145437000Y-85287000D01*
X145637000Y-85687000D02*
X145637000Y-85287000D01*
X119754500Y-63253252D02*
X119754500Y-62730748D01*
X121174500Y-63253252D02*
X121174500Y-62730748D01*
D12*
X133233333Y-74398142D02*
X133185714Y-74445761D01*
X133042857Y-74493380D01*
X132947619Y-74493380D01*
X132804761Y-74445761D01*
X132709523Y-74350523D01*
X132661904Y-74255285D01*
X132614285Y-74064809D01*
X132614285Y-73921952D01*
X132661904Y-73731476D01*
X132709523Y-73636238D01*
X132804761Y-73541000D01*
X132947619Y-73493380D01*
X133042857Y-73493380D01*
X133185714Y-73541000D01*
X133233333Y-73588619D01*
X133614285Y-73588619D02*
X133661904Y-73541000D01*
X133757142Y-73493380D01*
X133995238Y-73493380D01*
X134090476Y-73541000D01*
X134138095Y-73588619D01*
X134185714Y-73683857D01*
X134185714Y-73779095D01*
X134138095Y-73921952D01*
X133566666Y-74493380D01*
X134185714Y-74493380D01*
X123033333Y-74398142D02*
X122985714Y-74445761D01*
X122842857Y-74493380D01*
X122747619Y-74493380D01*
X122604761Y-74445761D01*
X122509523Y-74350523D01*
X122461904Y-74255285D01*
X122414285Y-74064809D01*
X122414285Y-73921952D01*
X122461904Y-73731476D01*
X122509523Y-73636238D01*
X122604761Y-73541000D01*
X122747619Y-73493380D01*
X122842857Y-73493380D01*
X122985714Y-73541000D01*
X123033333Y-73588619D01*
X123985714Y-74493380D02*
X123414285Y-74493380D01*
X123700000Y-74493380D02*
X123700000Y-73493380D01*
X123604761Y-73636238D01*
X123509523Y-73731476D01*
X123414285Y-73779095D01*
X142835333Y-90527142D02*
X142787714Y-90574761D01*
X142644857Y-90622380D01*
X142549619Y-90622380D01*
X142406761Y-90574761D01*
X142311523Y-90479523D01*
X142263904Y-90384285D01*
X142216285Y-90193809D01*
X142216285Y-90050952D01*
X142263904Y-89860476D01*
X142311523Y-89765238D01*
X142406761Y-89670000D01*
X142549619Y-89622380D01*
X142644857Y-89622380D01*
X142787714Y-89670000D01*
X142835333Y-89717619D01*
X143168666Y-89622380D02*
X143787714Y-89622380D01*
X143454380Y-90003333D01*
X143597238Y-90003333D01*
X143692476Y-90050952D01*
X143740095Y-90098571D01*
X143787714Y-90193809D01*
X143787714Y-90431904D01*
X143740095Y-90527142D01*
X143692476Y-90574761D01*
X143597238Y-90622380D01*
X143311523Y-90622380D01*
X143216285Y-90574761D01*
X143168666Y-90527142D01*
X149820333Y-90527142D02*
X149772714Y-90574761D01*
X149629857Y-90622380D01*
X149534619Y-90622380D01*
X149391761Y-90574761D01*
X149296523Y-90479523D01*
X149248904Y-90384285D01*
X149201285Y-90193809D01*
X149201285Y-90050952D01*
X149248904Y-89860476D01*
X149296523Y-89765238D01*
X149391761Y-89670000D01*
X149534619Y-89622380D01*
X149629857Y-89622380D01*
X149772714Y-89670000D01*
X149820333Y-89717619D01*
X150677476Y-89955714D02*
X150677476Y-90622380D01*
X150439380Y-89574761D02*
X150201285Y-90289047D01*
X150820333Y-90289047D01*
X150209333Y-67508380D02*
X149733142Y-67508380D01*
X149733142Y-66508380D01*
X150542666Y-67508380D02*
X150542666Y-66508380D01*
X150780761Y-66508380D01*
X150923619Y-66556000D01*
X151018857Y-66651238D01*
X151066476Y-66746476D01*
X151114095Y-66936952D01*
X151114095Y-67079809D01*
X151066476Y-67270285D01*
X151018857Y-67365523D01*
X150923619Y-67460761D01*
X150780761Y-67508380D01*
X150542666Y-67508380D01*
X151495047Y-66603619D02*
X151542666Y-66556000D01*
X151637904Y-66508380D01*
X151876000Y-66508380D01*
X151971238Y-66556000D01*
X152018857Y-66603619D01*
X152066476Y-66698857D01*
X152066476Y-66794095D01*
X152018857Y-66936952D01*
X151447428Y-67508380D01*
X152066476Y-67508380D01*
X149447333Y-63698380D02*
X148971142Y-63698380D01*
X148971142Y-62698380D01*
X149780666Y-63698380D02*
X149780666Y-62698380D01*
X150018761Y-62698380D01*
X150161619Y-62746000D01*
X150256857Y-62841238D01*
X150304476Y-62936476D01*
X150352095Y-63126952D01*
X150352095Y-63269809D01*
X150304476Y-63460285D01*
X150256857Y-63555523D01*
X150161619Y-63650761D01*
X150018761Y-63698380D01*
X149780666Y-63698380D01*
X151304476Y-63698380D02*
X150733047Y-63698380D01*
X151018761Y-63698380D02*
X151018761Y-62698380D01*
X150923523Y-62841238D01*
X150828285Y-62936476D01*
X150733047Y-62984095D01*
X143692642Y-67508380D02*
X143359309Y-67032190D01*
X143121214Y-67508380D02*
X143121214Y-66508380D01*
X143502166Y-66508380D01*
X143597404Y-66556000D01*
X143645023Y-66603619D01*
X143692642Y-66698857D01*
X143692642Y-66841714D01*
X143645023Y-66936952D01*
X143597404Y-66984571D01*
X143502166Y-67032190D01*
X143121214Y-67032190D01*
X144645023Y-67508380D02*
X144073595Y-67508380D01*
X144359309Y-67508380D02*
X144359309Y-66508380D01*
X144264071Y-66651238D01*
X144168833Y-66746476D01*
X144073595Y-66794095D01*
X145549785Y-66508380D02*
X145073595Y-66508380D01*
X145025976Y-66984571D01*
X145073595Y-66936952D01*
X145168833Y-66889333D01*
X145406928Y-66889333D01*
X145502166Y-66936952D01*
X145549785Y-66984571D01*
X145597404Y-67079809D01*
X145597404Y-67317904D01*
X145549785Y-67413142D01*
X145502166Y-67460761D01*
X145406928Y-67508380D01*
X145168833Y-67508380D01*
X145073595Y-67460761D01*
X145025976Y-67413142D01*
X144391142Y-63698380D02*
X144057809Y-63222190D01*
X143819714Y-63698380D02*
X143819714Y-62698380D01*
X144200666Y-62698380D01*
X144295904Y-62746000D01*
X144343523Y-62793619D01*
X144391142Y-62888857D01*
X144391142Y-63031714D01*
X144343523Y-63126952D01*
X144295904Y-63174571D01*
X144200666Y-63222190D01*
X143819714Y-63222190D01*
X145343523Y-63698380D02*
X144772095Y-63698380D01*
X145057809Y-63698380D02*
X145057809Y-62698380D01*
X144962571Y-62841238D01*
X144867333Y-62936476D01*
X144772095Y-62984095D01*
X146200666Y-63031714D02*
X146200666Y-63698380D01*
X145962571Y-62650761D02*
X145724476Y-63365047D01*
X146343523Y-63365047D01*
X138557095Y-75906380D02*
X138557095Y-76715904D01*
X138604714Y-76811142D01*
X138652333Y-76858761D01*
X138747571Y-76906380D01*
X138938047Y-76906380D01*
X139033285Y-76858761D01*
X139080904Y-76811142D01*
X139128523Y-76715904D01*
X139128523Y-75906380D01*
X140128523Y-76906380D02*
X139557095Y-76906380D01*
X139842809Y-76906380D02*
X139842809Y-75906380D01*
X139747571Y-76049238D01*
X139652333Y-76144476D01*
X139557095Y-76192095D01*
X127508095Y-72257380D02*
X127508095Y-73066904D01*
X127555714Y-73162142D01*
X127603333Y-73209761D01*
X127698571Y-73257380D01*
X127889047Y-73257380D01*
X127984285Y-73209761D01*
X128031904Y-73162142D01*
X128079523Y-73066904D01*
X128079523Y-72257380D01*
X128508095Y-72352619D02*
X128555714Y-72305000D01*
X128650952Y-72257380D01*
X128889047Y-72257380D01*
X128984285Y-72305000D01*
X129031904Y-72352619D01*
X129079523Y-72447857D01*
X129079523Y-72543095D01*
X129031904Y-72685952D01*
X128460476Y-73257380D01*
X129079523Y-73257380D01*
X137445809Y-82907190D02*
X137445809Y-83383380D01*
X137112476Y-82383380D02*
X137445809Y-82907190D01*
X137779142Y-82383380D01*
X138636285Y-83383380D02*
X138064857Y-83383380D01*
X138350571Y-83383380D02*
X138350571Y-82383380D01*
X138255333Y-82526238D01*
X138160095Y-82621476D01*
X138064857Y-82669095D01*
D15*
X172647428Y-76708000D02*
X173736000Y-76708000D01*
X173953714Y-76780571D01*
X174098857Y-76925714D01*
X174171428Y-77143428D01*
X174171428Y-77288571D01*
X172792571Y-76054857D02*
X172720000Y-75982285D01*
X172647428Y-75837142D01*
X172647428Y-75474285D01*
X172720000Y-75329142D01*
X172792571Y-75256571D01*
X172937714Y-75184000D01*
X173082857Y-75184000D01*
X173300571Y-75256571D01*
X174171428Y-76127428D01*
X174171428Y-75184000D01*
X166551428Y-79320571D02*
X165027428Y-79320571D01*
X165027428Y-78957714D01*
X165100000Y-78740000D01*
X165245142Y-78594857D01*
X165390285Y-78522285D01*
X165680571Y-78449714D01*
X165898285Y-78449714D01*
X166188571Y-78522285D01*
X166333714Y-78594857D01*
X166478857Y-78740000D01*
X166551428Y-78957714D01*
X166551428Y-79320571D01*
X165753142Y-77288571D02*
X165825714Y-77070857D01*
X165898285Y-76998285D01*
X166043428Y-76925714D01*
X166261142Y-76925714D01*
X166406285Y-76998285D01*
X166478857Y-77070857D01*
X166551428Y-77216000D01*
X166551428Y-77796571D01*
X165027428Y-77796571D01*
X165027428Y-77288571D01*
X165100000Y-77143428D01*
X165172571Y-77070857D01*
X165317714Y-76998285D01*
X165462857Y-76998285D01*
X165608000Y-77070857D01*
X165680571Y-77143428D01*
X165753142Y-77288571D01*
X165753142Y-77796571D01*
X166551428Y-76200000D02*
X166551428Y-75909714D01*
X166478857Y-75764571D01*
X166406285Y-75692000D01*
X166188571Y-75546857D01*
X165898285Y-75474285D01*
X165317714Y-75474285D01*
X165172571Y-75546857D01*
X165100000Y-75619428D01*
X165027428Y-75764571D01*
X165027428Y-76054857D01*
X165100000Y-76200000D01*
X165172571Y-76272571D01*
X165317714Y-76345142D01*
X165680571Y-76345142D01*
X165825714Y-76272571D01*
X165898285Y-76200000D01*
X165970857Y-76054857D01*
X165970857Y-75764571D01*
X165898285Y-75619428D01*
X165825714Y-75546857D01*
X165680571Y-75474285D01*
X166696571Y-75184000D02*
X166696571Y-74022857D01*
X165753142Y-73152000D02*
X165753142Y-73660000D01*
X166551428Y-73660000D02*
X165027428Y-73660000D01*
X165027428Y-72934285D01*
D12*
X152169904Y-81605380D02*
X152169904Y-80605380D01*
X152408000Y-80605380D01*
X152550857Y-80653000D01*
X152646095Y-80748238D01*
X152693714Y-80843476D01*
X152741333Y-81033952D01*
X152741333Y-81176809D01*
X152693714Y-81367285D01*
X152646095Y-81462523D01*
X152550857Y-81557761D01*
X152408000Y-81605380D01*
X152169904Y-81605380D01*
X153693714Y-81605380D02*
X153122285Y-81605380D01*
X153408000Y-81605380D02*
X153408000Y-80605380D01*
X153312761Y-80748238D01*
X153217523Y-80843476D01*
X153122285Y-80891095D01*
X119821642Y-60523380D02*
X119488309Y-60047190D01*
X119250214Y-60523380D02*
X119250214Y-59523380D01*
X119631166Y-59523380D01*
X119726404Y-59571000D01*
X119774023Y-59618619D01*
X119821642Y-59713857D01*
X119821642Y-59856714D01*
X119774023Y-59951952D01*
X119726404Y-59999571D01*
X119631166Y-60047190D01*
X119250214Y-60047190D01*
X120774023Y-60523380D02*
X120202595Y-60523380D01*
X120488309Y-60523380D02*
X120488309Y-59523380D01*
X120393071Y-59666238D01*
X120297833Y-59761476D01*
X120202595Y-59809095D01*
X121107357Y-59523380D02*
X121726404Y-59523380D01*
X121393071Y-59904333D01*
X121535928Y-59904333D01*
X121631166Y-59951952D01*
X121678785Y-59999571D01*
X121726404Y-60094809D01*
X121726404Y-60332904D01*
X121678785Y-60428142D01*
X121631166Y-60475761D01*
X121535928Y-60523380D01*
X121250214Y-60523380D01*
X121154976Y-60475761D01*
X121107357Y-60428142D01*
M02*
