M48
; DRILL file {KiCad 5.1.4-e60b266~84~ubuntu16.04.1} date Sun 10 Nov 2019 18:33:13 GMT
; FORMAT={-:-/ absolute / metric / decimal}
; #@! TF.CreationDate,2019-11-10T18:33:13+00:00
; #@! TF.GenerationSoftware,Kicad,Pcbnew,5.1.4-e60b266~84~ubuntu16.04.1
; #@! TF.FileFunction,Plated,1,2,PTH
FMAT,2
METRIC
T1C0.400
T2C0.600
T3C0.800
T4C0.899
T5C1.000
T6C3.200
%
G90
G05
T1
X120.465Y-65.668
X120.465Y-70.833
X120.465Y-75.983
X120.465Y-81.162
X125.222Y-85.471
X125.39Y-61.595
X133.35Y-70.833
X133.35Y-73.947
X133.4Y-82.55
X139.7Y-79.248
X143.002Y-76.2
X143.796Y-78.962
X144.272Y-77.089
X146.202Y-82.55
X152.114Y-79.254
X153.352Y-78.454
T2
X116.616Y-56.896
X116.616Y-95.25
X122.555Y-59.982
X122.555Y-67.12
X122.555Y-72.263
X122.555Y-83.82
X122.555Y-91.983
X125.857Y-77.567
X125.97Y-83.82
X129.54Y-83.82
X129.794Y-67.12
X129.794Y-72.263
X129.794Y-77.567
X133.4Y-81.162
X133.4Y-83.82
X135.826Y-83.82
X136.652Y-71.628
X139.065Y-74.422
X139.137Y-81.298
X139.137Y-88.582
X141.732Y-68.199
X143.637Y-88.582
X144.145Y-74.422
X145.396Y-83.458
X145.796Y-75.946
X145.796Y-78.041
X146.059Y-66.929
X146.996Y-83.458
X147.796Y-73.914
X148.117Y-88.582
X148.209Y-75.946
X148.209Y-78.041
X149.089Y-66.929
X150.05Y-80.645
X150.114Y-72.39
X150.876Y-87.598
X151.892Y-72.39
X155.321Y-69.596
X155.321Y-72.009
X155.321Y-74.803
X155.321Y-77.978
X155.321Y-80.391
X164.211Y-63.706
X164.211Y-69.953
X164.211Y-76.2
X164.211Y-82.447
X164.211Y-88.694
T3
X141.187Y-85.598
X146.067Y-85.598
T4
X157.48Y-70.66
X157.48Y-73.429
X157.48Y-76.2
X157.48Y-78.971
X157.48Y-81.74
X160.02Y-72.045
X160.02Y-74.816
X160.02Y-77.584
X160.02Y-80.355
T5
X116.616Y-59.982
X116.616Y-63.982
X116.616Y-67.983
X116.616Y-71.983
X116.616Y-75.983
X116.616Y-79.983
X116.616Y-83.983
X116.616Y-87.983
X116.616Y-91.983
X121.92Y-88.138
X124.46Y-88.138
X127.0Y-88.138
X129.54Y-88.138
X132.08Y-88.138
X134.62Y-88.138
X137.16Y-64.516
X137.16Y-67.056
X137.16Y-69.596
X139.7Y-64.516
X139.7Y-67.056
X139.7Y-69.596
T6
X158.75Y-63.706
X158.75Y-88.694
T0
M30
