G04 #@! TF.GenerationSoftware,KiCad,Pcbnew,5.1.4-e60b266~84~ubuntu16.04.1*
G04 #@! TF.CreationDate,2019-11-10T18:33:16+00:00*
G04 #@! TF.ProjectId,OpenPSX2AmigaPadAdapter,4f70656e-5053-4583-9241-6d6967615061,2*
G04 #@! TF.SameCoordinates,Original*
G04 #@! TF.FileFunction,Soldermask,Top*
G04 #@! TF.FilePolarity,Negative*
%FSLAX46Y46*%
G04 Gerber Fmt 4.6, Leading zero omitted, Abs format (unit mm)*
G04 Created by KiCad (PCBNEW 5.1.4-e60b266~84~ubuntu16.04.1) date 2019-11-10 18:33:16*
%MOMM*%
%LPD*%
G04 APERTURE LIST*
%ADD10C,0.050000*%
%ADD11O,1.700000X1.700000*%
%ADD12R,1.700000X1.700000*%
%ADD13C,0.100000*%
%ADD14C,1.425000*%
%ADD15C,1.150000*%
%ADD16R,0.550000X1.600000*%
%ADD17R,1.600000X0.550000*%
%ADD18R,3.800000X2.000000*%
%ADD19R,1.500000X2.000000*%
%ADD20C,1.500000*%
%ADD21C,5.001260*%
%ADD22O,1.998980X1.501140*%
%ADD23R,2.750000X1.000000*%
%ADD24R,1.800000X2.500000*%
%ADD25R,0.400000X1.900000*%
G04 APERTURE END LIST*
D10*
X113792000Y-95758000D02*
X110871000Y-95758000D01*
X113792000Y-56134000D02*
X113792000Y-95758000D01*
X110871000Y-56134000D02*
X113792000Y-56134000D01*
X110871000Y-95758000D02*
X110871000Y-56134000D01*
X167640000Y-91694000D02*
X127762000Y-91694000D01*
X127762000Y-91694000D02*
X115189000Y-98044000D01*
X108712000Y-98044000D02*
X115189000Y-98044000D01*
X108712000Y-53848000D02*
X108712000Y-98044000D01*
X114681000Y-53848000D02*
X108712000Y-53848000D01*
X127762000Y-60706000D02*
X114681000Y-53848000D01*
X127762000Y-60706000D02*
X167640000Y-60706000D01*
X167640000Y-60706000D02*
X167640000Y-91694000D01*
D11*
X116616000Y-59982500D03*
X116616000Y-63982500D03*
X116616000Y-67982500D03*
X116616000Y-71982500D03*
X116616000Y-75982500D03*
X116616000Y-79982500D03*
X116616000Y-83982500D03*
X116616000Y-87982500D03*
D12*
X116616000Y-91982500D03*
D13*
G36*
X134049504Y-75271204D02*
G01*
X134073773Y-75274804D01*
X134097571Y-75280765D01*
X134120671Y-75289030D01*
X134142849Y-75299520D01*
X134163893Y-75312133D01*
X134183598Y-75326747D01*
X134201777Y-75343223D01*
X134218253Y-75361402D01*
X134232867Y-75381107D01*
X134245480Y-75402151D01*
X134255970Y-75424329D01*
X134264235Y-75447429D01*
X134270196Y-75471227D01*
X134273796Y-75495496D01*
X134275000Y-75520000D01*
X134275000Y-76445000D01*
X134273796Y-76469504D01*
X134270196Y-76493773D01*
X134264235Y-76517571D01*
X134255970Y-76540671D01*
X134245480Y-76562849D01*
X134232867Y-76583893D01*
X134218253Y-76603598D01*
X134201777Y-76621777D01*
X134183598Y-76638253D01*
X134163893Y-76652867D01*
X134142849Y-76665480D01*
X134120671Y-76675970D01*
X134097571Y-76684235D01*
X134073773Y-76690196D01*
X134049504Y-76693796D01*
X134025000Y-76695000D01*
X132775000Y-76695000D01*
X132750496Y-76693796D01*
X132726227Y-76690196D01*
X132702429Y-76684235D01*
X132679329Y-76675970D01*
X132657151Y-76665480D01*
X132636107Y-76652867D01*
X132616402Y-76638253D01*
X132598223Y-76621777D01*
X132581747Y-76603598D01*
X132567133Y-76583893D01*
X132554520Y-76562849D01*
X132544030Y-76540671D01*
X132535765Y-76517571D01*
X132529804Y-76493773D01*
X132526204Y-76469504D01*
X132525000Y-76445000D01*
X132525000Y-75520000D01*
X132526204Y-75495496D01*
X132529804Y-75471227D01*
X132535765Y-75447429D01*
X132544030Y-75424329D01*
X132554520Y-75402151D01*
X132567133Y-75381107D01*
X132581747Y-75361402D01*
X132598223Y-75343223D01*
X132616402Y-75326747D01*
X132636107Y-75312133D01*
X132657151Y-75299520D01*
X132679329Y-75289030D01*
X132702429Y-75280765D01*
X132726227Y-75274804D01*
X132750496Y-75271204D01*
X132775000Y-75270000D01*
X134025000Y-75270000D01*
X134049504Y-75271204D01*
X134049504Y-75271204D01*
G37*
D14*
X133400000Y-75982500D03*
D13*
G36*
X134049504Y-78246204D02*
G01*
X134073773Y-78249804D01*
X134097571Y-78255765D01*
X134120671Y-78264030D01*
X134142849Y-78274520D01*
X134163893Y-78287133D01*
X134183598Y-78301747D01*
X134201777Y-78318223D01*
X134218253Y-78336402D01*
X134232867Y-78356107D01*
X134245480Y-78377151D01*
X134255970Y-78399329D01*
X134264235Y-78422429D01*
X134270196Y-78446227D01*
X134273796Y-78470496D01*
X134275000Y-78495000D01*
X134275000Y-79420000D01*
X134273796Y-79444504D01*
X134270196Y-79468773D01*
X134264235Y-79492571D01*
X134255970Y-79515671D01*
X134245480Y-79537849D01*
X134232867Y-79558893D01*
X134218253Y-79578598D01*
X134201777Y-79596777D01*
X134183598Y-79613253D01*
X134163893Y-79627867D01*
X134142849Y-79640480D01*
X134120671Y-79650970D01*
X134097571Y-79659235D01*
X134073773Y-79665196D01*
X134049504Y-79668796D01*
X134025000Y-79670000D01*
X132775000Y-79670000D01*
X132750496Y-79668796D01*
X132726227Y-79665196D01*
X132702429Y-79659235D01*
X132679329Y-79650970D01*
X132657151Y-79640480D01*
X132636107Y-79627867D01*
X132616402Y-79613253D01*
X132598223Y-79596777D01*
X132581747Y-79578598D01*
X132567133Y-79558893D01*
X132554520Y-79537849D01*
X132544030Y-79515671D01*
X132535765Y-79492571D01*
X132529804Y-79468773D01*
X132526204Y-79444504D01*
X132525000Y-79420000D01*
X132525000Y-78495000D01*
X132526204Y-78470496D01*
X132529804Y-78446227D01*
X132535765Y-78422429D01*
X132544030Y-78399329D01*
X132554520Y-78377151D01*
X132567133Y-78356107D01*
X132581747Y-78336402D01*
X132598223Y-78318223D01*
X132616402Y-78301747D01*
X132636107Y-78287133D01*
X132657151Y-78274520D01*
X132679329Y-78264030D01*
X132702429Y-78255765D01*
X132726227Y-78249804D01*
X132750496Y-78246204D01*
X132775000Y-78245000D01*
X134025000Y-78245000D01*
X134049504Y-78246204D01*
X134049504Y-78246204D01*
G37*
D14*
X133400000Y-78957500D03*
D13*
G36*
X123849504Y-78246204D02*
G01*
X123873773Y-78249804D01*
X123897571Y-78255765D01*
X123920671Y-78264030D01*
X123942849Y-78274520D01*
X123963893Y-78287133D01*
X123983598Y-78301747D01*
X124001777Y-78318223D01*
X124018253Y-78336402D01*
X124032867Y-78356107D01*
X124045480Y-78377151D01*
X124055970Y-78399329D01*
X124064235Y-78422429D01*
X124070196Y-78446227D01*
X124073796Y-78470496D01*
X124075000Y-78495000D01*
X124075000Y-79420000D01*
X124073796Y-79444504D01*
X124070196Y-79468773D01*
X124064235Y-79492571D01*
X124055970Y-79515671D01*
X124045480Y-79537849D01*
X124032867Y-79558893D01*
X124018253Y-79578598D01*
X124001777Y-79596777D01*
X123983598Y-79613253D01*
X123963893Y-79627867D01*
X123942849Y-79640480D01*
X123920671Y-79650970D01*
X123897571Y-79659235D01*
X123873773Y-79665196D01*
X123849504Y-79668796D01*
X123825000Y-79670000D01*
X122575000Y-79670000D01*
X122550496Y-79668796D01*
X122526227Y-79665196D01*
X122502429Y-79659235D01*
X122479329Y-79650970D01*
X122457151Y-79640480D01*
X122436107Y-79627867D01*
X122416402Y-79613253D01*
X122398223Y-79596777D01*
X122381747Y-79578598D01*
X122367133Y-79558893D01*
X122354520Y-79537849D01*
X122344030Y-79515671D01*
X122335765Y-79492571D01*
X122329804Y-79468773D01*
X122326204Y-79444504D01*
X122325000Y-79420000D01*
X122325000Y-78495000D01*
X122326204Y-78470496D01*
X122329804Y-78446227D01*
X122335765Y-78422429D01*
X122344030Y-78399329D01*
X122354520Y-78377151D01*
X122367133Y-78356107D01*
X122381747Y-78336402D01*
X122398223Y-78318223D01*
X122416402Y-78301747D01*
X122436107Y-78287133D01*
X122457151Y-78274520D01*
X122479329Y-78264030D01*
X122502429Y-78255765D01*
X122526227Y-78249804D01*
X122550496Y-78246204D01*
X122575000Y-78245000D01*
X123825000Y-78245000D01*
X123849504Y-78246204D01*
X123849504Y-78246204D01*
G37*
D14*
X123200000Y-78957500D03*
D13*
G36*
X123849504Y-75271204D02*
G01*
X123873773Y-75274804D01*
X123897571Y-75280765D01*
X123920671Y-75289030D01*
X123942849Y-75299520D01*
X123963893Y-75312133D01*
X123983598Y-75326747D01*
X124001777Y-75343223D01*
X124018253Y-75361402D01*
X124032867Y-75381107D01*
X124045480Y-75402151D01*
X124055970Y-75424329D01*
X124064235Y-75447429D01*
X124070196Y-75471227D01*
X124073796Y-75495496D01*
X124075000Y-75520000D01*
X124075000Y-76445000D01*
X124073796Y-76469504D01*
X124070196Y-76493773D01*
X124064235Y-76517571D01*
X124055970Y-76540671D01*
X124045480Y-76562849D01*
X124032867Y-76583893D01*
X124018253Y-76603598D01*
X124001777Y-76621777D01*
X123983598Y-76638253D01*
X123963893Y-76652867D01*
X123942849Y-76665480D01*
X123920671Y-76675970D01*
X123897571Y-76684235D01*
X123873773Y-76690196D01*
X123849504Y-76693796D01*
X123825000Y-76695000D01*
X122575000Y-76695000D01*
X122550496Y-76693796D01*
X122526227Y-76690196D01*
X122502429Y-76684235D01*
X122479329Y-76675970D01*
X122457151Y-76665480D01*
X122436107Y-76652867D01*
X122416402Y-76638253D01*
X122398223Y-76621777D01*
X122381747Y-76603598D01*
X122367133Y-76583893D01*
X122354520Y-76562849D01*
X122344030Y-76540671D01*
X122335765Y-76517571D01*
X122329804Y-76493773D01*
X122326204Y-76469504D01*
X122325000Y-76445000D01*
X122325000Y-75520000D01*
X122326204Y-75495496D01*
X122329804Y-75471227D01*
X122335765Y-75447429D01*
X122344030Y-75424329D01*
X122354520Y-75402151D01*
X122367133Y-75381107D01*
X122381747Y-75361402D01*
X122398223Y-75343223D01*
X122416402Y-75326747D01*
X122436107Y-75312133D01*
X122457151Y-75299520D01*
X122479329Y-75289030D01*
X122502429Y-75280765D01*
X122526227Y-75274804D01*
X122550496Y-75271204D01*
X122575000Y-75270000D01*
X123825000Y-75270000D01*
X123849504Y-75271204D01*
X123849504Y-75271204D01*
G37*
D14*
X123200000Y-75982500D03*
D13*
G36*
X139486505Y-89344204D02*
G01*
X139510773Y-89347804D01*
X139534572Y-89353765D01*
X139557671Y-89362030D01*
X139579850Y-89372520D01*
X139600893Y-89385132D01*
X139620599Y-89399747D01*
X139638777Y-89416223D01*
X139655253Y-89434401D01*
X139669868Y-89454107D01*
X139682480Y-89475150D01*
X139692970Y-89497329D01*
X139701235Y-89520428D01*
X139707196Y-89544227D01*
X139710796Y-89568495D01*
X139712000Y-89592999D01*
X139712000Y-90493001D01*
X139710796Y-90517505D01*
X139707196Y-90541773D01*
X139701235Y-90565572D01*
X139692970Y-90588671D01*
X139682480Y-90610850D01*
X139669868Y-90631893D01*
X139655253Y-90651599D01*
X139638777Y-90669777D01*
X139620599Y-90686253D01*
X139600893Y-90700868D01*
X139579850Y-90713480D01*
X139557671Y-90723970D01*
X139534572Y-90732235D01*
X139510773Y-90738196D01*
X139486505Y-90741796D01*
X139462001Y-90743000D01*
X138811999Y-90743000D01*
X138787495Y-90741796D01*
X138763227Y-90738196D01*
X138739428Y-90732235D01*
X138716329Y-90723970D01*
X138694150Y-90713480D01*
X138673107Y-90700868D01*
X138653401Y-90686253D01*
X138635223Y-90669777D01*
X138618747Y-90651599D01*
X138604132Y-90631893D01*
X138591520Y-90610850D01*
X138581030Y-90588671D01*
X138572765Y-90565572D01*
X138566804Y-90541773D01*
X138563204Y-90517505D01*
X138562000Y-90493001D01*
X138562000Y-89592999D01*
X138563204Y-89568495D01*
X138566804Y-89544227D01*
X138572765Y-89520428D01*
X138581030Y-89497329D01*
X138591520Y-89475150D01*
X138604132Y-89454107D01*
X138618747Y-89434401D01*
X138635223Y-89416223D01*
X138653401Y-89399747D01*
X138673107Y-89385132D01*
X138694150Y-89372520D01*
X138716329Y-89362030D01*
X138739428Y-89353765D01*
X138763227Y-89347804D01*
X138787495Y-89344204D01*
X138811999Y-89343000D01*
X139462001Y-89343000D01*
X139486505Y-89344204D01*
X139486505Y-89344204D01*
G37*
D15*
X139137000Y-90043000D03*
D13*
G36*
X141536505Y-89344204D02*
G01*
X141560773Y-89347804D01*
X141584572Y-89353765D01*
X141607671Y-89362030D01*
X141629850Y-89372520D01*
X141650893Y-89385132D01*
X141670599Y-89399747D01*
X141688777Y-89416223D01*
X141705253Y-89434401D01*
X141719868Y-89454107D01*
X141732480Y-89475150D01*
X141742970Y-89497329D01*
X141751235Y-89520428D01*
X141757196Y-89544227D01*
X141760796Y-89568495D01*
X141762000Y-89592999D01*
X141762000Y-90493001D01*
X141760796Y-90517505D01*
X141757196Y-90541773D01*
X141751235Y-90565572D01*
X141742970Y-90588671D01*
X141732480Y-90610850D01*
X141719868Y-90631893D01*
X141705253Y-90651599D01*
X141688777Y-90669777D01*
X141670599Y-90686253D01*
X141650893Y-90700868D01*
X141629850Y-90713480D01*
X141607671Y-90723970D01*
X141584572Y-90732235D01*
X141560773Y-90738196D01*
X141536505Y-90741796D01*
X141512001Y-90743000D01*
X140861999Y-90743000D01*
X140837495Y-90741796D01*
X140813227Y-90738196D01*
X140789428Y-90732235D01*
X140766329Y-90723970D01*
X140744150Y-90713480D01*
X140723107Y-90700868D01*
X140703401Y-90686253D01*
X140685223Y-90669777D01*
X140668747Y-90651599D01*
X140654132Y-90631893D01*
X140641520Y-90610850D01*
X140631030Y-90588671D01*
X140622765Y-90565572D01*
X140616804Y-90541773D01*
X140613204Y-90517505D01*
X140612000Y-90493001D01*
X140612000Y-89592999D01*
X140613204Y-89568495D01*
X140616804Y-89544227D01*
X140622765Y-89520428D01*
X140631030Y-89497329D01*
X140641520Y-89475150D01*
X140654132Y-89454107D01*
X140668747Y-89434401D01*
X140685223Y-89416223D01*
X140703401Y-89399747D01*
X140723107Y-89385132D01*
X140744150Y-89372520D01*
X140766329Y-89362030D01*
X140789428Y-89353765D01*
X140813227Y-89347804D01*
X140837495Y-89344204D01*
X140861999Y-89343000D01*
X141512001Y-89343000D01*
X141536505Y-89344204D01*
X141536505Y-89344204D01*
G37*
D15*
X141187000Y-90043000D03*
D13*
G36*
X146416505Y-89344204D02*
G01*
X146440773Y-89347804D01*
X146464572Y-89353765D01*
X146487671Y-89362030D01*
X146509850Y-89372520D01*
X146530893Y-89385132D01*
X146550599Y-89399747D01*
X146568777Y-89416223D01*
X146585253Y-89434401D01*
X146599868Y-89454107D01*
X146612480Y-89475150D01*
X146622970Y-89497329D01*
X146631235Y-89520428D01*
X146637196Y-89544227D01*
X146640796Y-89568495D01*
X146642000Y-89592999D01*
X146642000Y-90493001D01*
X146640796Y-90517505D01*
X146637196Y-90541773D01*
X146631235Y-90565572D01*
X146622970Y-90588671D01*
X146612480Y-90610850D01*
X146599868Y-90631893D01*
X146585253Y-90651599D01*
X146568777Y-90669777D01*
X146550599Y-90686253D01*
X146530893Y-90700868D01*
X146509850Y-90713480D01*
X146487671Y-90723970D01*
X146464572Y-90732235D01*
X146440773Y-90738196D01*
X146416505Y-90741796D01*
X146392001Y-90743000D01*
X145741999Y-90743000D01*
X145717495Y-90741796D01*
X145693227Y-90738196D01*
X145669428Y-90732235D01*
X145646329Y-90723970D01*
X145624150Y-90713480D01*
X145603107Y-90700868D01*
X145583401Y-90686253D01*
X145565223Y-90669777D01*
X145548747Y-90651599D01*
X145534132Y-90631893D01*
X145521520Y-90610850D01*
X145511030Y-90588671D01*
X145502765Y-90565572D01*
X145496804Y-90541773D01*
X145493204Y-90517505D01*
X145492000Y-90493001D01*
X145492000Y-89592999D01*
X145493204Y-89568495D01*
X145496804Y-89544227D01*
X145502765Y-89520428D01*
X145511030Y-89497329D01*
X145521520Y-89475150D01*
X145534132Y-89454107D01*
X145548747Y-89434401D01*
X145565223Y-89416223D01*
X145583401Y-89399747D01*
X145603107Y-89385132D01*
X145624150Y-89372520D01*
X145646329Y-89362030D01*
X145669428Y-89353765D01*
X145693227Y-89347804D01*
X145717495Y-89344204D01*
X145741999Y-89343000D01*
X146392001Y-89343000D01*
X146416505Y-89344204D01*
X146416505Y-89344204D01*
G37*
D15*
X146067000Y-90043000D03*
D13*
G36*
X148466505Y-89344204D02*
G01*
X148490773Y-89347804D01*
X148514572Y-89353765D01*
X148537671Y-89362030D01*
X148559850Y-89372520D01*
X148580893Y-89385132D01*
X148600599Y-89399747D01*
X148618777Y-89416223D01*
X148635253Y-89434401D01*
X148649868Y-89454107D01*
X148662480Y-89475150D01*
X148672970Y-89497329D01*
X148681235Y-89520428D01*
X148687196Y-89544227D01*
X148690796Y-89568495D01*
X148692000Y-89592999D01*
X148692000Y-90493001D01*
X148690796Y-90517505D01*
X148687196Y-90541773D01*
X148681235Y-90565572D01*
X148672970Y-90588671D01*
X148662480Y-90610850D01*
X148649868Y-90631893D01*
X148635253Y-90651599D01*
X148618777Y-90669777D01*
X148600599Y-90686253D01*
X148580893Y-90700868D01*
X148559850Y-90713480D01*
X148537671Y-90723970D01*
X148514572Y-90732235D01*
X148490773Y-90738196D01*
X148466505Y-90741796D01*
X148442001Y-90743000D01*
X147791999Y-90743000D01*
X147767495Y-90741796D01*
X147743227Y-90738196D01*
X147719428Y-90732235D01*
X147696329Y-90723970D01*
X147674150Y-90713480D01*
X147653107Y-90700868D01*
X147633401Y-90686253D01*
X147615223Y-90669777D01*
X147598747Y-90651599D01*
X147584132Y-90631893D01*
X147571520Y-90610850D01*
X147561030Y-90588671D01*
X147552765Y-90565572D01*
X147546804Y-90541773D01*
X147543204Y-90517505D01*
X147542000Y-90493001D01*
X147542000Y-89592999D01*
X147543204Y-89568495D01*
X147546804Y-89544227D01*
X147552765Y-89520428D01*
X147561030Y-89497329D01*
X147571520Y-89475150D01*
X147584132Y-89454107D01*
X147598747Y-89434401D01*
X147615223Y-89416223D01*
X147633401Y-89399747D01*
X147653107Y-89385132D01*
X147674150Y-89372520D01*
X147696329Y-89362030D01*
X147719428Y-89353765D01*
X147743227Y-89347804D01*
X147767495Y-89344204D01*
X147791999Y-89343000D01*
X148442001Y-89343000D01*
X148466505Y-89344204D01*
X148466505Y-89344204D01*
G37*
D15*
X148117000Y-90043000D03*
D13*
G36*
X149438505Y-68135204D02*
G01*
X149462773Y-68138804D01*
X149486572Y-68144765D01*
X149509671Y-68153030D01*
X149531850Y-68163520D01*
X149552893Y-68176132D01*
X149572599Y-68190747D01*
X149590777Y-68207223D01*
X149607253Y-68225401D01*
X149621868Y-68245107D01*
X149634480Y-68266150D01*
X149644970Y-68288329D01*
X149653235Y-68311428D01*
X149659196Y-68335227D01*
X149662796Y-68359495D01*
X149664000Y-68383999D01*
X149664000Y-69284001D01*
X149662796Y-69308505D01*
X149659196Y-69332773D01*
X149653235Y-69356572D01*
X149644970Y-69379671D01*
X149634480Y-69401850D01*
X149621868Y-69422893D01*
X149607253Y-69442599D01*
X149590777Y-69460777D01*
X149572599Y-69477253D01*
X149552893Y-69491868D01*
X149531850Y-69504480D01*
X149509671Y-69514970D01*
X149486572Y-69523235D01*
X149462773Y-69529196D01*
X149438505Y-69532796D01*
X149414001Y-69534000D01*
X148763999Y-69534000D01*
X148739495Y-69532796D01*
X148715227Y-69529196D01*
X148691428Y-69523235D01*
X148668329Y-69514970D01*
X148646150Y-69504480D01*
X148625107Y-69491868D01*
X148605401Y-69477253D01*
X148587223Y-69460777D01*
X148570747Y-69442599D01*
X148556132Y-69422893D01*
X148543520Y-69401850D01*
X148533030Y-69379671D01*
X148524765Y-69356572D01*
X148518804Y-69332773D01*
X148515204Y-69308505D01*
X148514000Y-69284001D01*
X148514000Y-68383999D01*
X148515204Y-68359495D01*
X148518804Y-68335227D01*
X148524765Y-68311428D01*
X148533030Y-68288329D01*
X148543520Y-68266150D01*
X148556132Y-68245107D01*
X148570747Y-68225401D01*
X148587223Y-68207223D01*
X148605401Y-68190747D01*
X148625107Y-68176132D01*
X148646150Y-68163520D01*
X148668329Y-68153030D01*
X148691428Y-68144765D01*
X148715227Y-68138804D01*
X148739495Y-68135204D01*
X148763999Y-68134000D01*
X149414001Y-68134000D01*
X149438505Y-68135204D01*
X149438505Y-68135204D01*
G37*
D15*
X149089000Y-68834000D03*
D13*
G36*
X151488505Y-68135204D02*
G01*
X151512773Y-68138804D01*
X151536572Y-68144765D01*
X151559671Y-68153030D01*
X151581850Y-68163520D01*
X151602893Y-68176132D01*
X151622599Y-68190747D01*
X151640777Y-68207223D01*
X151657253Y-68225401D01*
X151671868Y-68245107D01*
X151684480Y-68266150D01*
X151694970Y-68288329D01*
X151703235Y-68311428D01*
X151709196Y-68335227D01*
X151712796Y-68359495D01*
X151714000Y-68383999D01*
X151714000Y-69284001D01*
X151712796Y-69308505D01*
X151709196Y-69332773D01*
X151703235Y-69356572D01*
X151694970Y-69379671D01*
X151684480Y-69401850D01*
X151671868Y-69422893D01*
X151657253Y-69442599D01*
X151640777Y-69460777D01*
X151622599Y-69477253D01*
X151602893Y-69491868D01*
X151581850Y-69504480D01*
X151559671Y-69514970D01*
X151536572Y-69523235D01*
X151512773Y-69529196D01*
X151488505Y-69532796D01*
X151464001Y-69534000D01*
X150813999Y-69534000D01*
X150789495Y-69532796D01*
X150765227Y-69529196D01*
X150741428Y-69523235D01*
X150718329Y-69514970D01*
X150696150Y-69504480D01*
X150675107Y-69491868D01*
X150655401Y-69477253D01*
X150637223Y-69460777D01*
X150620747Y-69442599D01*
X150606132Y-69422893D01*
X150593520Y-69401850D01*
X150583030Y-69379671D01*
X150574765Y-69356572D01*
X150568804Y-69332773D01*
X150565204Y-69308505D01*
X150564000Y-69284001D01*
X150564000Y-68383999D01*
X150565204Y-68359495D01*
X150568804Y-68335227D01*
X150574765Y-68311428D01*
X150583030Y-68288329D01*
X150593520Y-68266150D01*
X150606132Y-68245107D01*
X150620747Y-68225401D01*
X150637223Y-68207223D01*
X150655401Y-68190747D01*
X150675107Y-68176132D01*
X150696150Y-68163520D01*
X150718329Y-68153030D01*
X150741428Y-68144765D01*
X150765227Y-68138804D01*
X150789495Y-68135204D01*
X150813999Y-68134000D01*
X151464001Y-68134000D01*
X151488505Y-68135204D01*
X151488505Y-68135204D01*
G37*
D15*
X151139000Y-68834000D03*
D13*
G36*
X151488505Y-64325204D02*
G01*
X151512773Y-64328804D01*
X151536572Y-64334765D01*
X151559671Y-64343030D01*
X151581850Y-64353520D01*
X151602893Y-64366132D01*
X151622599Y-64380747D01*
X151640777Y-64397223D01*
X151657253Y-64415401D01*
X151671868Y-64435107D01*
X151684480Y-64456150D01*
X151694970Y-64478329D01*
X151703235Y-64501428D01*
X151709196Y-64525227D01*
X151712796Y-64549495D01*
X151714000Y-64573999D01*
X151714000Y-65474001D01*
X151712796Y-65498505D01*
X151709196Y-65522773D01*
X151703235Y-65546572D01*
X151694970Y-65569671D01*
X151684480Y-65591850D01*
X151671868Y-65612893D01*
X151657253Y-65632599D01*
X151640777Y-65650777D01*
X151622599Y-65667253D01*
X151602893Y-65681868D01*
X151581850Y-65694480D01*
X151559671Y-65704970D01*
X151536572Y-65713235D01*
X151512773Y-65719196D01*
X151488505Y-65722796D01*
X151464001Y-65724000D01*
X150813999Y-65724000D01*
X150789495Y-65722796D01*
X150765227Y-65719196D01*
X150741428Y-65713235D01*
X150718329Y-65704970D01*
X150696150Y-65694480D01*
X150675107Y-65681868D01*
X150655401Y-65667253D01*
X150637223Y-65650777D01*
X150620747Y-65632599D01*
X150606132Y-65612893D01*
X150593520Y-65591850D01*
X150583030Y-65569671D01*
X150574765Y-65546572D01*
X150568804Y-65522773D01*
X150565204Y-65498505D01*
X150564000Y-65474001D01*
X150564000Y-64573999D01*
X150565204Y-64549495D01*
X150568804Y-64525227D01*
X150574765Y-64501428D01*
X150583030Y-64478329D01*
X150593520Y-64456150D01*
X150606132Y-64435107D01*
X150620747Y-64415401D01*
X150637223Y-64397223D01*
X150655401Y-64380747D01*
X150675107Y-64366132D01*
X150696150Y-64353520D01*
X150718329Y-64343030D01*
X150741428Y-64334765D01*
X150765227Y-64328804D01*
X150789495Y-64325204D01*
X150813999Y-64324000D01*
X151464001Y-64324000D01*
X151488505Y-64325204D01*
X151488505Y-64325204D01*
G37*
D15*
X151139000Y-65024000D03*
D13*
G36*
X149438505Y-64325204D02*
G01*
X149462773Y-64328804D01*
X149486572Y-64334765D01*
X149509671Y-64343030D01*
X149531850Y-64353520D01*
X149552893Y-64366132D01*
X149572599Y-64380747D01*
X149590777Y-64397223D01*
X149607253Y-64415401D01*
X149621868Y-64435107D01*
X149634480Y-64456150D01*
X149644970Y-64478329D01*
X149653235Y-64501428D01*
X149659196Y-64525227D01*
X149662796Y-64549495D01*
X149664000Y-64573999D01*
X149664000Y-65474001D01*
X149662796Y-65498505D01*
X149659196Y-65522773D01*
X149653235Y-65546572D01*
X149644970Y-65569671D01*
X149634480Y-65591850D01*
X149621868Y-65612893D01*
X149607253Y-65632599D01*
X149590777Y-65650777D01*
X149572599Y-65667253D01*
X149552893Y-65681868D01*
X149531850Y-65694480D01*
X149509671Y-65704970D01*
X149486572Y-65713235D01*
X149462773Y-65719196D01*
X149438505Y-65722796D01*
X149414001Y-65724000D01*
X148763999Y-65724000D01*
X148739495Y-65722796D01*
X148715227Y-65719196D01*
X148691428Y-65713235D01*
X148668329Y-65704970D01*
X148646150Y-65694480D01*
X148625107Y-65681868D01*
X148605401Y-65667253D01*
X148587223Y-65650777D01*
X148570747Y-65632599D01*
X148556132Y-65612893D01*
X148543520Y-65591850D01*
X148533030Y-65569671D01*
X148524765Y-65546572D01*
X148518804Y-65522773D01*
X148515204Y-65498505D01*
X148514000Y-65474001D01*
X148514000Y-64573999D01*
X148515204Y-64549495D01*
X148518804Y-64525227D01*
X148524765Y-64501428D01*
X148533030Y-64478329D01*
X148543520Y-64456150D01*
X148556132Y-64435107D01*
X148570747Y-64415401D01*
X148587223Y-64397223D01*
X148605401Y-64380747D01*
X148625107Y-64366132D01*
X148646150Y-64353520D01*
X148668329Y-64343030D01*
X148691428Y-64334765D01*
X148715227Y-64328804D01*
X148739495Y-64325204D01*
X148763999Y-64324000D01*
X149414001Y-64324000D01*
X149438505Y-64325204D01*
X149438505Y-64325204D01*
G37*
D15*
X149089000Y-65024000D03*
D13*
G36*
X146408505Y-68135204D02*
G01*
X146432773Y-68138804D01*
X146456572Y-68144765D01*
X146479671Y-68153030D01*
X146501850Y-68163520D01*
X146522893Y-68176132D01*
X146542599Y-68190747D01*
X146560777Y-68207223D01*
X146577253Y-68225401D01*
X146591868Y-68245107D01*
X146604480Y-68266150D01*
X146614970Y-68288329D01*
X146623235Y-68311428D01*
X146629196Y-68335227D01*
X146632796Y-68359495D01*
X146634000Y-68383999D01*
X146634000Y-69284001D01*
X146632796Y-69308505D01*
X146629196Y-69332773D01*
X146623235Y-69356572D01*
X146614970Y-69379671D01*
X146604480Y-69401850D01*
X146591868Y-69422893D01*
X146577253Y-69442599D01*
X146560777Y-69460777D01*
X146542599Y-69477253D01*
X146522893Y-69491868D01*
X146501850Y-69504480D01*
X146479671Y-69514970D01*
X146456572Y-69523235D01*
X146432773Y-69529196D01*
X146408505Y-69532796D01*
X146384001Y-69534000D01*
X145733999Y-69534000D01*
X145709495Y-69532796D01*
X145685227Y-69529196D01*
X145661428Y-69523235D01*
X145638329Y-69514970D01*
X145616150Y-69504480D01*
X145595107Y-69491868D01*
X145575401Y-69477253D01*
X145557223Y-69460777D01*
X145540747Y-69442599D01*
X145526132Y-69422893D01*
X145513520Y-69401850D01*
X145503030Y-69379671D01*
X145494765Y-69356572D01*
X145488804Y-69332773D01*
X145485204Y-69308505D01*
X145484000Y-69284001D01*
X145484000Y-68383999D01*
X145485204Y-68359495D01*
X145488804Y-68335227D01*
X145494765Y-68311428D01*
X145503030Y-68288329D01*
X145513520Y-68266150D01*
X145526132Y-68245107D01*
X145540747Y-68225401D01*
X145557223Y-68207223D01*
X145575401Y-68190747D01*
X145595107Y-68176132D01*
X145616150Y-68163520D01*
X145638329Y-68153030D01*
X145661428Y-68144765D01*
X145685227Y-68138804D01*
X145709495Y-68135204D01*
X145733999Y-68134000D01*
X146384001Y-68134000D01*
X146408505Y-68135204D01*
X146408505Y-68135204D01*
G37*
D15*
X146059000Y-68834000D03*
D13*
G36*
X144358505Y-68135204D02*
G01*
X144382773Y-68138804D01*
X144406572Y-68144765D01*
X144429671Y-68153030D01*
X144451850Y-68163520D01*
X144472893Y-68176132D01*
X144492599Y-68190747D01*
X144510777Y-68207223D01*
X144527253Y-68225401D01*
X144541868Y-68245107D01*
X144554480Y-68266150D01*
X144564970Y-68288329D01*
X144573235Y-68311428D01*
X144579196Y-68335227D01*
X144582796Y-68359495D01*
X144584000Y-68383999D01*
X144584000Y-69284001D01*
X144582796Y-69308505D01*
X144579196Y-69332773D01*
X144573235Y-69356572D01*
X144564970Y-69379671D01*
X144554480Y-69401850D01*
X144541868Y-69422893D01*
X144527253Y-69442599D01*
X144510777Y-69460777D01*
X144492599Y-69477253D01*
X144472893Y-69491868D01*
X144451850Y-69504480D01*
X144429671Y-69514970D01*
X144406572Y-69523235D01*
X144382773Y-69529196D01*
X144358505Y-69532796D01*
X144334001Y-69534000D01*
X143683999Y-69534000D01*
X143659495Y-69532796D01*
X143635227Y-69529196D01*
X143611428Y-69523235D01*
X143588329Y-69514970D01*
X143566150Y-69504480D01*
X143545107Y-69491868D01*
X143525401Y-69477253D01*
X143507223Y-69460777D01*
X143490747Y-69442599D01*
X143476132Y-69422893D01*
X143463520Y-69401850D01*
X143453030Y-69379671D01*
X143444765Y-69356572D01*
X143438804Y-69332773D01*
X143435204Y-69308505D01*
X143434000Y-69284001D01*
X143434000Y-68383999D01*
X143435204Y-68359495D01*
X143438804Y-68335227D01*
X143444765Y-68311428D01*
X143453030Y-68288329D01*
X143463520Y-68266150D01*
X143476132Y-68245107D01*
X143490747Y-68225401D01*
X143507223Y-68207223D01*
X143525401Y-68190747D01*
X143545107Y-68176132D01*
X143566150Y-68163520D01*
X143588329Y-68153030D01*
X143611428Y-68144765D01*
X143635227Y-68138804D01*
X143659495Y-68135204D01*
X143683999Y-68134000D01*
X144334001Y-68134000D01*
X144358505Y-68135204D01*
X144358505Y-68135204D01*
G37*
D15*
X144009000Y-68834000D03*
D13*
G36*
X144358505Y-64325204D02*
G01*
X144382773Y-64328804D01*
X144406572Y-64334765D01*
X144429671Y-64343030D01*
X144451850Y-64353520D01*
X144472893Y-64366132D01*
X144492599Y-64380747D01*
X144510777Y-64397223D01*
X144527253Y-64415401D01*
X144541868Y-64435107D01*
X144554480Y-64456150D01*
X144564970Y-64478329D01*
X144573235Y-64501428D01*
X144579196Y-64525227D01*
X144582796Y-64549495D01*
X144584000Y-64573999D01*
X144584000Y-65474001D01*
X144582796Y-65498505D01*
X144579196Y-65522773D01*
X144573235Y-65546572D01*
X144564970Y-65569671D01*
X144554480Y-65591850D01*
X144541868Y-65612893D01*
X144527253Y-65632599D01*
X144510777Y-65650777D01*
X144492599Y-65667253D01*
X144472893Y-65681868D01*
X144451850Y-65694480D01*
X144429671Y-65704970D01*
X144406572Y-65713235D01*
X144382773Y-65719196D01*
X144358505Y-65722796D01*
X144334001Y-65724000D01*
X143683999Y-65724000D01*
X143659495Y-65722796D01*
X143635227Y-65719196D01*
X143611428Y-65713235D01*
X143588329Y-65704970D01*
X143566150Y-65694480D01*
X143545107Y-65681868D01*
X143525401Y-65667253D01*
X143507223Y-65650777D01*
X143490747Y-65632599D01*
X143476132Y-65612893D01*
X143463520Y-65591850D01*
X143453030Y-65569671D01*
X143444765Y-65546572D01*
X143438804Y-65522773D01*
X143435204Y-65498505D01*
X143434000Y-65474001D01*
X143434000Y-64573999D01*
X143435204Y-64549495D01*
X143438804Y-64525227D01*
X143444765Y-64501428D01*
X143453030Y-64478329D01*
X143463520Y-64456150D01*
X143476132Y-64435107D01*
X143490747Y-64415401D01*
X143507223Y-64397223D01*
X143525401Y-64380747D01*
X143545107Y-64366132D01*
X143566150Y-64353520D01*
X143588329Y-64343030D01*
X143611428Y-64334765D01*
X143635227Y-64328804D01*
X143659495Y-64325204D01*
X143683999Y-64324000D01*
X144334001Y-64324000D01*
X144358505Y-64325204D01*
X144358505Y-64325204D01*
G37*
D15*
X144009000Y-65024000D03*
D13*
G36*
X146408505Y-64325204D02*
G01*
X146432773Y-64328804D01*
X146456572Y-64334765D01*
X146479671Y-64343030D01*
X146501850Y-64353520D01*
X146522893Y-64366132D01*
X146542599Y-64380747D01*
X146560777Y-64397223D01*
X146577253Y-64415401D01*
X146591868Y-64435107D01*
X146604480Y-64456150D01*
X146614970Y-64478329D01*
X146623235Y-64501428D01*
X146629196Y-64525227D01*
X146632796Y-64549495D01*
X146634000Y-64573999D01*
X146634000Y-65474001D01*
X146632796Y-65498505D01*
X146629196Y-65522773D01*
X146623235Y-65546572D01*
X146614970Y-65569671D01*
X146604480Y-65591850D01*
X146591868Y-65612893D01*
X146577253Y-65632599D01*
X146560777Y-65650777D01*
X146542599Y-65667253D01*
X146522893Y-65681868D01*
X146501850Y-65694480D01*
X146479671Y-65704970D01*
X146456572Y-65713235D01*
X146432773Y-65719196D01*
X146408505Y-65722796D01*
X146384001Y-65724000D01*
X145733999Y-65724000D01*
X145709495Y-65722796D01*
X145685227Y-65719196D01*
X145661428Y-65713235D01*
X145638329Y-65704970D01*
X145616150Y-65694480D01*
X145595107Y-65681868D01*
X145575401Y-65667253D01*
X145557223Y-65650777D01*
X145540747Y-65632599D01*
X145526132Y-65612893D01*
X145513520Y-65591850D01*
X145503030Y-65569671D01*
X145494765Y-65546572D01*
X145488804Y-65522773D01*
X145485204Y-65498505D01*
X145484000Y-65474001D01*
X145484000Y-64573999D01*
X145485204Y-64549495D01*
X145488804Y-64525227D01*
X145494765Y-64501428D01*
X145503030Y-64478329D01*
X145513520Y-64456150D01*
X145526132Y-64435107D01*
X145540747Y-64415401D01*
X145557223Y-64397223D01*
X145575401Y-64380747D01*
X145595107Y-64366132D01*
X145616150Y-64353520D01*
X145638329Y-64343030D01*
X145661428Y-64334765D01*
X145685227Y-64328804D01*
X145709495Y-64325204D01*
X145733999Y-64324000D01*
X146384001Y-64324000D01*
X146408505Y-64325204D01*
X146408505Y-64325204D01*
G37*
D15*
X146059000Y-65024000D03*
D16*
X142996000Y-80704000D03*
X143796000Y-80704000D03*
X144596000Y-80704000D03*
X145396000Y-80704000D03*
X146196000Y-80704000D03*
X146996000Y-80704000D03*
X147796000Y-80704000D03*
X148596000Y-80704000D03*
D17*
X150046000Y-79254000D03*
X150046000Y-78454000D03*
X150046000Y-77654000D03*
X150046000Y-76854000D03*
X150046000Y-76054000D03*
X150046000Y-75254000D03*
X150046000Y-74454000D03*
X150046000Y-73654000D03*
D16*
X148596000Y-72204000D03*
X147796000Y-72204000D03*
X146996000Y-72204000D03*
X146196000Y-72204000D03*
X145396000Y-72204000D03*
X144596000Y-72204000D03*
X143796000Y-72204000D03*
X142996000Y-72204000D03*
D17*
X141546000Y-73654000D03*
X141546000Y-74454000D03*
X141546000Y-75254000D03*
X141546000Y-76054000D03*
X141546000Y-76854000D03*
X141546000Y-77654000D03*
X141546000Y-78454000D03*
X141546000Y-79254000D03*
D18*
X128270000Y-74862000D03*
D19*
X128270000Y-81162000D03*
X130570000Y-81162000D03*
X125970000Y-81162000D03*
D20*
X146067000Y-85598000D03*
X141187000Y-85598000D03*
D12*
X134620000Y-88138000D03*
D11*
X132080000Y-88138000D03*
X129540000Y-88138000D03*
X127000000Y-88138000D03*
X124460000Y-88138000D03*
X121920000Y-88138000D03*
D12*
X139700000Y-69596000D03*
D11*
X137160000Y-69596000D03*
X139700000Y-67056000D03*
X137160000Y-67056000D03*
X139700000Y-64516000D03*
X137160000Y-64516000D03*
D21*
X158750000Y-88694260D03*
D22*
X160268920Y-72044560D03*
X160268920Y-74815700D03*
X160268920Y-77584300D03*
X160268920Y-80355440D03*
X157231080Y-81739740D03*
X157231080Y-78971140D03*
X157231080Y-70660260D03*
X157231080Y-73428860D03*
X157231080Y-76200000D03*
D21*
X158750000Y-63705740D03*
D23*
X131150000Y-64944000D03*
X125390000Y-64944000D03*
X125390000Y-68944000D03*
X131150000Y-68944000D03*
D24*
X152908000Y-87598000D03*
X152908000Y-83598000D03*
D25*
X144837000Y-86487000D03*
X143637000Y-86487000D03*
X142437000Y-86487000D03*
D13*
G36*
X120939005Y-63443204D02*
G01*
X120963273Y-63446804D01*
X120987072Y-63452765D01*
X121010171Y-63461030D01*
X121032350Y-63471520D01*
X121053393Y-63484132D01*
X121073099Y-63498747D01*
X121091277Y-63515223D01*
X121107753Y-63533401D01*
X121122368Y-63553107D01*
X121134980Y-63574150D01*
X121145470Y-63596329D01*
X121153735Y-63619428D01*
X121159696Y-63643227D01*
X121163296Y-63667495D01*
X121164500Y-63691999D01*
X121164500Y-64342001D01*
X121163296Y-64366505D01*
X121159696Y-64390773D01*
X121153735Y-64414572D01*
X121145470Y-64437671D01*
X121134980Y-64459850D01*
X121122368Y-64480893D01*
X121107753Y-64500599D01*
X121091277Y-64518777D01*
X121073099Y-64535253D01*
X121053393Y-64549868D01*
X121032350Y-64562480D01*
X121010171Y-64572970D01*
X120987072Y-64581235D01*
X120963273Y-64587196D01*
X120939005Y-64590796D01*
X120914501Y-64592000D01*
X120014499Y-64592000D01*
X119989995Y-64590796D01*
X119965727Y-64587196D01*
X119941928Y-64581235D01*
X119918829Y-64572970D01*
X119896650Y-64562480D01*
X119875607Y-64549868D01*
X119855901Y-64535253D01*
X119837723Y-64518777D01*
X119821247Y-64500599D01*
X119806632Y-64480893D01*
X119794020Y-64459850D01*
X119783530Y-64437671D01*
X119775265Y-64414572D01*
X119769304Y-64390773D01*
X119765704Y-64366505D01*
X119764500Y-64342001D01*
X119764500Y-63691999D01*
X119765704Y-63667495D01*
X119769304Y-63643227D01*
X119775265Y-63619428D01*
X119783530Y-63596329D01*
X119794020Y-63574150D01*
X119806632Y-63553107D01*
X119821247Y-63533401D01*
X119837723Y-63515223D01*
X119855901Y-63498747D01*
X119875607Y-63484132D01*
X119896650Y-63471520D01*
X119918829Y-63461030D01*
X119941928Y-63452765D01*
X119965727Y-63446804D01*
X119989995Y-63443204D01*
X120014499Y-63442000D01*
X120914501Y-63442000D01*
X120939005Y-63443204D01*
X120939005Y-63443204D01*
G37*
D15*
X120464500Y-64017000D03*
D13*
G36*
X120939005Y-61393204D02*
G01*
X120963273Y-61396804D01*
X120987072Y-61402765D01*
X121010171Y-61411030D01*
X121032350Y-61421520D01*
X121053393Y-61434132D01*
X121073099Y-61448747D01*
X121091277Y-61465223D01*
X121107753Y-61483401D01*
X121122368Y-61503107D01*
X121134980Y-61524150D01*
X121145470Y-61546329D01*
X121153735Y-61569428D01*
X121159696Y-61593227D01*
X121163296Y-61617495D01*
X121164500Y-61641999D01*
X121164500Y-62292001D01*
X121163296Y-62316505D01*
X121159696Y-62340773D01*
X121153735Y-62364572D01*
X121145470Y-62387671D01*
X121134980Y-62409850D01*
X121122368Y-62430893D01*
X121107753Y-62450599D01*
X121091277Y-62468777D01*
X121073099Y-62485253D01*
X121053393Y-62499868D01*
X121032350Y-62512480D01*
X121010171Y-62522970D01*
X120987072Y-62531235D01*
X120963273Y-62537196D01*
X120939005Y-62540796D01*
X120914501Y-62542000D01*
X120014499Y-62542000D01*
X119989995Y-62540796D01*
X119965727Y-62537196D01*
X119941928Y-62531235D01*
X119918829Y-62522970D01*
X119896650Y-62512480D01*
X119875607Y-62499868D01*
X119855901Y-62485253D01*
X119837723Y-62468777D01*
X119821247Y-62450599D01*
X119806632Y-62430893D01*
X119794020Y-62409850D01*
X119783530Y-62387671D01*
X119775265Y-62364572D01*
X119769304Y-62340773D01*
X119765704Y-62316505D01*
X119764500Y-62292001D01*
X119764500Y-61641999D01*
X119765704Y-61617495D01*
X119769304Y-61593227D01*
X119775265Y-61569428D01*
X119783530Y-61546329D01*
X119794020Y-61524150D01*
X119806632Y-61503107D01*
X119821247Y-61483401D01*
X119837723Y-61465223D01*
X119855901Y-61448747D01*
X119875607Y-61434132D01*
X119896650Y-61421520D01*
X119918829Y-61411030D01*
X119941928Y-61402765D01*
X119965727Y-61396804D01*
X119989995Y-61393204D01*
X120014499Y-61392000D01*
X120914501Y-61392000D01*
X120939005Y-61393204D01*
X120939005Y-61393204D01*
G37*
D15*
X120464500Y-61967000D03*
M02*
